<svg width="127" height="127" xmlns="http://www.w3.org/2000/svg" xmlns:xlink="http://www.w3.org/1999/xlink" xml:space="preserve" overflow="hidden"><defs><clipPath id="clip0"><rect x="0" y="0" width="127" height="127"/></clipPath></defs><g clip-path="url(#clip0)"><path d="M127 63.5C127 98.5701 98.5701 127 63.5 127 28.4299 127 0 98.5701 0 63.5-1.20319e-14 28.4299 28.4299 0 63.5 0 98.5701-1.20319e-14 127 28.4299 127 63.5Z" fill="#FFFEFE" fill-rule="evenodd"/><path d="M63.5 0C98.5465 0 127 28.4535 127 63.5 127 98.5465 98.5465 127 63.5 127 28.4535 127 0 98.5465 0 63.5 0 28.4535 28.4535 0 63.5 0ZM63.5 6.77333C94.8085 6.77333 120.227 32.1915 120.227 63.5 120.227 94.8085 94.8085 120.227 63.5 120.227 32.1915 120.227 6.77333 94.8085 6.77333 63.5 6.77333 32.1915 32.1915 6.77333 63.5 6.77333Z" fill="#2D67B9" fill-rule="evenodd"/><path d="M42.8566 74.9236 42.8566 91.1514 26.5982 91.1514 26.5982 74.9236 42.8566 74.9236ZM100.402 91.1514 84.163 91.1514 84.163 74.9236 100.402 74.9236 100.402 91.1514ZM79.7565 91.1514 47.2626 91.1514 47.2626 74.9236 79.7565 74.9236 79.7565 91.1514ZM61.2981 56.4637 61.2981 70.5172 26.5982 70.5172 26.5982 56.4637 61.2981 56.4637ZM100.402 70.5172 65.7041 70.5172 65.7041 56.4637 100.402 56.4637 100.402 70.5172ZM42.8566 52.0576 26.5982 52.0576 26.5982 35.8486 42.8566 35.8486 42.8566 52.0576ZM79.7565 35.8486 79.7565 52.0576 47.2626 52.0576 47.2626 35.8486 79.7565 35.8486ZM100.402 52.0576 84.163 52.0576 84.163 35.8486 100.402 35.8486 100.402 52.0576Z" fill="#2D67B9" fill-rule="evenodd"/></g></svg>