<svg width="128" height="128" xmlns="http://www.w3.org/2000/svg" xmlns:xlink="http://www.w3.org/1999/xlink" xml:space="preserve" overflow="hidden"><defs><clipPath id="clip0"><rect x="0" y="0" width="128" height="128"/></clipPath></defs><g clip-path="url(#clip0)"><path d="M128 64C128 99.3462 99.3462 128 64 128 28.6538 128 0 99.3462 0 64-1.21266e-14 28.6538 28.6538 0 64 0 99.3462-1.21266e-14 128 28.6538 128 64Z" fill="#FFFEFE" fill-rule="evenodd"/><path d="M64 0C99.3225 0 128 28.6775 128 64 128 99.3225 99.3225 128 64 128 28.6775 128 0 99.3225 0 64 0 28.6775 28.6775 0 64 0ZM64 6.82667C95.555 6.82667 121.173 32.445 121.173 64 121.173 95.555 95.555 121.173 64 121.173 32.445 121.173 6.82667 95.555 6.82667 64 6.82667 32.445 32.445 6.82667 64 6.82667Z" fill="#2D67B9" fill-rule="evenodd"/><path d="M39.5794 96.6713C39.5054 96.6726 39.4317 96.673 39.3577 96.673 30.1471 96.673 22.6696 89.1955 22.6696 79.985 22.6696 71.7207 28.6905 64.8513 36.5811 63.5275 36.7833 48.8518 48.7587 37.0017 63.4801 37.0017 78.2016 37.0017 90.1769 48.8518 90.3792 63.5275 98.2698 64.8513 104.291 71.7207 104.291 79.985 104.291 89.1955 96.8131 96.673 87.6026 96.673 87.487 96.673 87.3719 96.6718 87.2577 96.6692L87.2577 96.6713 39.5794 96.6713ZM39.3577 90.9882 87.6026 90.9882C93.543 90.9882 98.3658 86.1654 98.3658 80.2249 98.3658 75.0111 94.6506 70.658 89.7254 69.6716L89.631 69.6529 89.5946 69.6466 89.4994 69.6288 89.4625 69.6225 89.3673 69.606 89.3288 69.6 89.2344 69.5852 89.1942 69.5793 89.1011 69.5658 89.058 69.5598 88.9674 69.548 88.9208 69.5421 88.8332 69.5315 88.7825 69.526 88.6987 69.5171 88.6437 69.512 88.5632 69.5044 88.504 69.4993 88.4274 69.493 88.3635 69.4887 88.2911 69.4837 88.2226 69.4798 88.1544 69.4756 88.0808 69.4726 88.0173 69.4697 87.9369 69.4671 87.8793 69.4655 87.7884 69.4638 87.7414 69.4629 87.6026 69.4616 87.468 69.4625 87.4231 69.4633 87.3334 69.465 87.2801 69.4667 87.1997 69.4693 87.143 69.4718 87.066 69.4752 87.0076 69.4782 86.9331 69.4824 86.8734 69.4862 86.8002 69.4917 86.7401 69.4964 86.6682 69.5023 86.6076 69.5074 86.5361 69.5141 86.4756 69.5205 86.4045 69.5281 86.344 69.5349 86.2737 69.5433 86.2132 69.5509 86.143 69.5603 86.0829 69.5687 86.0122 69.5789 85.9529 69.5878 85.8818 69.5992 85.8239 69.6085 85.7485 69.6216 85.6952 69.6305 85.5704 69.6538 85.5094 69.6661 85.443 69.6792 85.3782 69.6927 85.3164 69.7058 85.2504 69.7202 85.1908 69.7338 85.1235 69.7494 85.0651 69.7634 84.9978 69.7799 84.9406 69.7943 84.8729 69.8121 84.8162 69.8269 84.7485 69.8451 84.6931 69.8607 84.6249 69.8798 84.5699 69.8959 84.5018 69.9162 84.448 69.9327 84.3795 69.9538 84.3266 69.9703 84.2576 69.9928 84.206 70.0097 84.137 70.033 84.0866 70.0503 84.0164 70.0749 83.9685 70.0918 83.897 70.118 83.8602 70.1316 83.7806 70.1612 83.7184 70.1853 83.6867 70.198C84.3063 68.2102 84.6402 66.0955 84.6402 63.9033 84.6402 52.2247 75.1588 42.7433 63.4801 42.7433 51.8015 42.7433 42.3201 52.2247 42.3201 63.9033 42.3201 66.0955 42.654 68.2102 43.2736 70.198L43.2418 70.1853 43.1796 70.1612 43.1 70.1316 43.0632 70.118 42.9917 70.0918 42.9439 70.0749 42.8736 70.0503 42.8233 70.033 42.7543 70.0097 42.7027 69.9928 42.6337 69.9703 42.5808 69.9538 42.5122 69.9327 42.4585 69.9162 42.3903 69.8959 42.3353 69.8798 42.2672 69.8607 42.2117 69.8451 42.144 69.8269 42.0873 69.8121 42.0196 69.7943 41.9625 69.7799 41.8952 69.7634 41.8368 69.7494 41.7695 69.7338 41.7098 69.7202 41.6438 69.7058 41.582 69.6927 41.5173 69.6792 41.4508 69.6661 41.3899 69.6538 41.265 69.6305 41.2117 69.6216 41.1364 69.6085 41.0784 69.5992 41.0073 69.5878 40.9481 69.5789 40.8774 69.5687 40.8173 69.5603 40.747 69.5509 40.6865 69.5433 40.6163 69.5349 40.5558 69.5281 40.4847 69.5205 40.4241 69.5141 40.3526 69.5074 40.2921 69.5023 40.2202 69.4964 40.1601 69.4917 40.0869 69.4862 40.0272 69.4824 39.9527 69.4782 39.8943 69.4752 39.8173 69.4718 39.7606 69.4693 39.6802 69.4667 39.6268 69.465 39.5371 69.4633 39.4923 69.4625 39.3577 69.4616 39.2189 69.4629 39.1719 69.4638 39.0809 69.4655 39.0233 69.4671 38.9429 69.4697 38.8795 69.4726 38.8058 69.4756 38.7377 69.4798 38.6691 69.4837 38.5968 69.4887 38.5329 69.493 38.4563 69.4993 38.397 69.5044 38.3166 69.512 38.2616 69.5171 38.1778 69.526 38.127 69.5315 38.0394 69.5421 37.9929 69.548 37.9023 69.5598 37.8591 69.5658 37.766 69.5793 37.7258 69.5852 37.6314 69.6 37.5929 69.606 37.4977 69.6225 37.4609 69.6288 37.3657 69.6466 37.3293 69.6529 37.2349 69.6716C32.3097 70.658 28.5944 75.0111 28.5944 80.2249 28.5944 86.1654 33.4172 90.9882 39.3577 90.9882Z" fill="#2D67B9" fill-rule="evenodd" transform="matrix(1.04569 0 0 1 -2.38103 -5.88117)"/></g></svg>