<svg width="128" height="128" xmlns="http://www.w3.org/2000/svg" xmlns:xlink="http://www.w3.org/1999/xlink" xml:space="preserve" overflow="hidden"><defs><clipPath id="clip0"><rect x="0" y="0" width="128" height="128"/></clipPath></defs><g clip-path="url(#clip0)"><path d="M128 64C128 99.3462 99.3462 128 64 128 28.6538 128 0 99.3462 0 64-1.21266e-14 28.6538 28.6538 0 64 0 99.3462-1.21266e-14 128 28.6538 128 64Z" fill="#FFFEFE" fill-rule="evenodd"/><path d="M64 0C99.3225 0 128 28.6775 128 64 128 99.3225 99.3225 128 64 128 28.6775 128 0 99.3225 0 64 0 28.6775 28.6775 0 64 0ZM64 6.82667C95.555 6.82667 121.173 32.445 121.173 64 121.173 95.555 95.555 121.173 64 121.173 32.445 121.173 6.82667 95.555 6.82667 64 6.82667 32.445 32.445 6.82667 64 6.82667Z" fill="#2D67B9" fill-rule="evenodd"/><path d="M39.4322 50.8103 64.0001 50.8103 64.0001 60.1672 39.481 60.1672 48.1785 68.8647 34.7082 68.8647 21.3272 55.4837 34.7082 42.1027 48.1398 42.1027 39.4322 50.8103Z" fill="#2D67B9" fill-rule="evenodd"/><path d="M39.4322 82.3271 64.0001 82.3271 64.0001 91.6841 39.481 91.6841 48.1785 100.382 34.7082 100.382 21.3272 87.0005 34.7082 73.6196 48.1398 73.6196 39.4322 82.3271Z" fill="#2D67B9" fill-rule="evenodd"/><path d="M44.4158 55.7935 68.9837 55.7935 68.9837 65.1505 44.4646 65.1505 53.162 73.8479 39.6918 73.8479 26.3108 60.467 39.6918 47.086 53.1234 47.086 44.4158 55.7935Z" fill="#2D67B9" fill-rule="evenodd" transform="matrix(-1 0 0 1 132.984 12.0409)"/><path d="M44.4158 55.7935 68.9837 55.7935 68.9837 65.1505 44.4646 65.1505 53.162 73.8479 39.6918 73.8479 26.3108 60.467 39.6918 47.086 53.1234 47.086 44.4158 55.7935Z" fill="#2D67B9" fill-rule="evenodd" transform="matrix(-1 0 0 1 132.984 -19.476)"/></g></svg>