<svg width="128" height="128" xmlns="http://www.w3.org/2000/svg" xmlns:xlink="http://www.w3.org/1999/xlink" xml:space="preserve" overflow="hidden"><defs><clipPath id="clip0"><rect x="0" y="0" width="128" height="128"/></clipPath></defs><g clip-path="url(#clip0)"><path d="M128 64C128 99.3462 99.3462 128 64 128 28.6538 128 0 99.3462 0 64-1.21266e-14 28.6538 28.6538 0 64 0 99.3462-1.21266e-14 128 28.6538 128 64Z" fill="#FFFEFE" fill-rule="evenodd"/><path d="M64.2069 0.000426667 64.4134 0.00128 64.6204 0.00298667 64.8265 0.00512 65.033 0.00810667 65.239 0.0119467 65.4451 0.0162133 65.6508 0.0209067 65.8564 0.0264533 66.0621 0.0328533 66.2673 0.03968 66.4725 0.0469333 66.6773 0.05504 66.8821 0.064 67.0869 0.0733867 67.2913 0.0832 67.4957 0.0938667 67.6996 0.105387 67.904 0.117333 68.1075 0.130133 68.3115 0.14336 68.5146 0.157013 68.7181 0.17152 68.9212 0.18688 69.1243 0.202667 69.3269 0.21888 69.5296 0.235947 69.7318 0.253867 69.9341 0.272213 70.1363 0.290987 70.3381 0.310613 70.5395 0.330667 70.7413 0.351573 70.9427 0.372907 71.1437 0.395093 71.3446 0.417707 71.5456 0.441173 71.7461 0.465067 71.9462 0.489387 72.1463 0.51456 72.3465 0.54016 72.5466 0.566613 72.7458 0.59392 72.9455 0.621227 73.1447 0.649813 73.3436 0.6784 73.5424 0.70784 73.7412 0.738133 73.9396 0.768853 74.1376 0.8 74.336 0.832 74.5335 0.864427 74.7311 0.89728 74.9286 0.930987 75.1258 0.965547 75.3229 1.00053 75.5196 1.03595 75.7163 1.07179 75.9125 1.10891 76.1088 1.14603 76.3046 1.184 76.5005 1.2224 76.6963 1.26165 76.8913 1.30133 77.0867 1.34144 77.2813 1.3824 77.4763 1.42379 77.6704 1.46603 77.865 1.50869 78.0587 1.55179 78.2528 1.59573 78.4461 1.64011 78.6394 1.68491 78.8326 1.73056 79.0255 1.77664 79.2183 1.82357 79.4108 1.87093 79.6028 1.91872 79.7948 1.96736 79.9868 2.01643 80.1783 2.06592 80.3695 2.11627 80.5606 2.16704 80.7514 2.21824 80.9421 2.27029 81.1324 2.32277 81.3227 2.37611 81.5125 2.42944 81.702 2.48405 81.8914 2.53867 82.0809 2.59413 82.2694 2.65003 82.4585 2.70635 82.6466 2.76352 82.8348 2.82112 83.0229 2.87915 83.2107 2.93803 83.398 2.99733 83.5853 3.05749 83.7722 3.11765 83.959 3.17867 84.1455 3.24011 84.3315 3.3024 84.5175 3.36512 84.7031 3.42827 84.8887 3.49184 85.0739 3.55627 85.2587 3.62112 85.4434 3.6864 85.6277 3.75253 85.812 3.81909 85.9959 3.88608 86.1794 3.95392 86.3629 4.02176 86.5459 4.09045 86.729 4.16 86.9111 4.22955 87.0938 4.29995 87.2755 4.37077 87.4573 4.44203 87.639 4.51413 87.8199 4.58667 88.0013 4.65963 88.1818 4.73344 88.3622 4.80725 88.5423 4.88192 88.7223 4.95701 88.9016 5.03296 89.0812 5.10891 89.2599 5.18571 89.4387 5.26293 89.6171 5.34059 89.7954 5.41909 89.9733 5.49803 90.1508 5.57739 90.3283 5.65717 90.5054 5.73781 90.682 5.81845 90.8582 5.89995 91.0345 5.98187 91.2102 6.06464 91.386 6.14741 91.5614 6.23104 91.7363 6.31509 91.9113 6.39957 92.0853 6.48491 92.2594 6.57024 92.4335 6.65643 92.6067 6.74304 92.78 6.83008 92.9532 6.91797 93.1255 7.00587 93.2979 7.09461 93.4699 7.18379 93.6418 7.27339 93.8133 7.36341 93.9844 7.45429 94.1551 7.5456 94.3253 7.63691 94.4956 7.72907 94.6654 7.82208 94.8352 7.91509 95.0046 8.00853 95.1731 8.10283 95.3421 8.19755 95.5102 8.29269 95.6783 8.38827 95.846 8.48427 96.0132 8.58112 96.1805 8.67797 96.3469 8.77568 96.5133 8.87381 96.6797 8.97237 96.8452 9.07136 97.0108 9.17077 97.1759 9.27104 97.3406 9.37131 97.5049 9.47243 97.6691 9.57397 97.833 9.67595 97.9964 9.77835 98.1598 9.88117 98.3223 9.98485 98.4849 10.0885 98.647 10.1926 98.8087 10.2976 98.9705 10.403 99.1313 10.5088 99.2922 10.615 99.4526 10.7217 99.613 10.8288 99.7726 10.9363 99.9322 11.0447 100.091 11.1531 100.25 11.2623 100.408 11.3715 100.566 11.4816 100.724 11.5921 100.881 11.703 101.039 11.8144 101.195 11.9262 101.352 12.0384 101.507 12.151 101.663 12.2641 101.818 12.378 101.973 12.4919 102.128 12.6063 102.282 12.7215 102.436 12.8371 102.589 12.9527 102.743 13.0692 102.895 13.1861 103.048 13.303 103.2 13.4208 103.351 13.539 103.503 13.6576 103.654 13.7766 103.804 13.8961 103.954 14.016 104.105 14.1363 104.254 14.2571 104.403 14.3782 104.552 14.4998 104.7 14.6223 104.848 14.7447 104.996 14.8676 105.143 14.9909 105.29 15.1147 105.437 15.2393 105.583 15.3638 105.728 15.4889 105.873 15.6147 106.019 15.7406 106.163 15.8669 106.307 15.9936 106.451 16.1212 106.595 16.2487 106.738 16.3767 106.88 16.5052 107.023 16.6345 107.165 16.7637 107.306 16.8934 107.447 17.0236 107.588 17.1541 107.728 17.2855 107.868 17.417 108.008 17.5488 108.147 17.6811 108.286 17.8138 108.424 17.9469 108.562 18.0804 108.7 18.2144 108.837 18.3488 108.974 18.4832 109.11 18.6185 109.246 18.7541 109.382 18.8898 109.517 19.0263 109.651 19.1633 109.786 19.3003 109.92 19.4377 110.053 19.5759 110.186 19.7141 110.319 19.8528 110.451 19.9923 110.583 20.1318 110.714 20.2718 110.846 20.4122 110.976 20.5525 111.107 20.6938 111.236 20.8354 111.366 20.9771 111.495 21.1196 111.623 21.2621 111.751 21.4054 111.879 21.5488 112.006 21.6926 112.133 21.8368 112.259 21.9814 112.385 22.1265 112.511 22.2716 112.636 22.4175 112.761 22.5634 112.885 22.7102 113.009 22.857 113.132 23.0042 113.255 23.1518 113.378 23.2998 113.5 23.4483 113.622 23.5968 113.743 23.7461 113.864 23.8955 113.984 24.0457 114.104 24.1958 114.223 24.3465 114.342 24.4971 114.461 24.6485 114.579 24.8004 114.697 24.9523 114.814 25.1046 114.931 25.2574 115.047 25.4106 115.163 25.5642 115.279 25.7178 115.394 25.8722 115.508 26.0267 115.622 26.1815 115.736 26.3369 115.849 26.4926 115.962 26.6483 116.074 26.8049 116.186 26.9615 116.297 27.1185 116.408 27.2759 116.518 27.4338 116.628 27.5917 116.738 27.75 116.847 27.9087 116.955 28.0678 117.064 28.2274 117.171 28.387 117.278 28.5474 117.385 28.7078 117.491 28.8687 117.597 29.0295 117.702 29.1913 117.807 29.353 117.911 29.5151 118.015 29.6777 118.119 29.8402 118.222 30.0036 118.324 30.167 118.426 30.3309 118.528 30.4951 118.629 30.6594 118.729 30.8241 118.829 30.9892 118.929 31.1548 119.028 31.3203 119.126 31.4867 119.224 31.6531 119.322 31.8195 119.419 31.9868 119.516 32.154 119.612 32.3217 119.707 32.4898 119.802 32.6579 119.897 32.8269 119.991 32.9954 120.085 33.1648 120.178 33.3346 120.271 33.5044 120.363 33.6747 120.454 33.8449 120.546 34.0156 120.637 34.1867 120.727 34.3582 120.816 34.5301 120.905 34.7021 120.994 34.8745 121.082 35.0468 121.17 35.2201 121.257 35.3933 121.344 35.5665 121.43 35.7406 121.515 35.9147 121.6 36.0887 121.685 36.2637 121.769 36.4386 121.853 36.614 121.935 36.7898 122.018 36.9655 122.1 37.1418 122.182 37.318 122.262 37.4946 122.343 37.6717 122.423 37.8492 122.502 38.0267 122.581 38.2046 122.659 38.3829 122.737 38.5613 122.814 38.7401 122.891 38.9188 122.967 39.0985 123.043 39.2777 123.118 39.4577 123.193 39.6378 123.267 39.8182 123.34 39.9987 123.413 40.1801 123.486 40.361 123.558 40.5427 123.629 40.7245 123.7 40.9062 123.77 41.0889 123.84 41.271 123.91 41.4541 123.978 41.6371 124.046 41.8206 124.114 42.0041 124.181 42.1879 124.247 42.3723 124.314 42.5566 124.379 42.7413 124.444 42.9261 124.508 43.1113 124.572 43.2969 124.635 43.4825 124.698 43.6685 124.76 43.8545 124.821 44.041 124.882 44.2278 124.943 44.4147 125.003 44.602 125.062 44.7893 125.121 44.9771 125.179 45.1652 125.236 45.3534 125.294 45.5415 125.35 45.7306 125.406 45.9191 125.461 46.1086 125.516 46.298 125.571 46.4875 125.624 46.6773 125.677 46.8676 125.73 47.0579 125.782 47.2486 125.833 47.4394 125.884 47.6305 125.934 47.8217 125.984 48.0132 126.033 48.2052 126.081 48.3972 126.129 48.5892 126.176 48.7817 126.223 48.9745 126.269 49.1674 126.315 49.3606 126.36 49.5539 126.404 49.7472 126.448 49.9413 126.491 50.135 126.534 50.3296 126.576 50.5237 126.618 50.7187 126.659 50.9133 126.699 51.1087 126.738 51.3037 126.778 51.4995 126.816 51.6954 126.854 51.8912 126.891 52.0875 126.928 52.2837 126.964 52.4804 126.999 52.6771 127.034 52.8742 127.069 53.0714 127.103 53.2689 127.136 53.4665 127.168 53.664 127.2 53.8624 127.231 54.0604 127.262 54.2588 127.292 54.4576 127.322 54.6564 127.35 54.8553 127.379 55.0545 127.406 55.2542 127.433 55.4534 127.46 55.6535 127.485 55.8537 127.511 56.0538 127.535 56.2539 127.559 56.4544 127.582 56.6554 127.605 56.8563 127.627 57.0573 127.648 57.2587 127.669 57.4605 127.689 57.6619 127.709 57.8637 127.728 58.0659 127.746 58.2682 127.764 58.4704 127.781 58.6731 127.797 58.8757 127.813 59.0788 127.828 59.2819 127.843 59.4854 127.857 59.6885 127.87 59.8925 127.883 60.096 127.895 60.3004 127.906 60.5043 127.917 60.7087 127.927 60.9131 127.936 61.1179 127.945 61.3227 127.953 61.5275 127.96 61.7327 127.967 61.9379 127.974 62.1436 127.979 62.3492 127.984 62.5549 127.988 62.761 127.992 62.967 127.995 63.1735 127.997 63.3796 127.999 63.5866 128 63.7931 128 64 128 64.2069 127.999 64.4134 127.997 64.6204 127.995 64.8265 127.992 65.033 127.988 65.239 127.984 65.4451 127.979 65.6508 127.974 65.8564 127.967 66.0621 127.96 66.2673 127.953 66.4725 127.945 66.6773 127.936 66.8821 127.927 67.0869 127.917 67.2913 127.906 67.4957 127.895 67.6996 127.883 67.904 127.87 68.1075 127.857 68.3115 127.843 68.5146 127.828 68.7181 127.813 68.9212 127.797 69.1243 127.781 69.3269 127.764 69.5296 127.746 69.7318 127.728 69.9341 127.709 70.1363 127.689 70.3381 127.669 70.5395 127.648 70.7413 127.627 70.9427 127.605 71.1437 127.582 71.3446 127.559 71.5456 127.535 71.7461 127.511 71.9462 127.485 72.1463 127.46 72.3465 127.433 72.5466 127.406 72.7458 127.379 72.9455 127.35 73.1447 127.322 73.3436 127.292 73.5424 127.262 73.7412 127.231 73.9396 127.2 74.1376 127.168 74.336 127.136 74.5335 127.103 74.7311 127.069 74.9286 127.034 75.1258 126.999 75.3229 126.964 75.5196 126.928 75.7163 126.891 75.9125 126.854 76.1088 126.816 76.3046 126.778 76.5005 126.738 76.6963 126.699 76.8913 126.659 77.0867 126.618 77.2813 126.576 77.4763 126.534 77.6704 126.491 77.865 126.448 78.0587 126.404 78.2528 126.36 78.4461 126.315 78.6394 126.269 78.8326 126.223 79.0255 126.176 79.2183 126.129 79.4108 126.081 79.6028 126.033 79.7948 125.984 79.9868 125.934 80.1783 125.884 80.3695 125.833 80.5606 125.782 80.7514 125.73 80.9421 125.677 81.1324 125.624 81.3227 125.571 81.5125 125.516 81.702 125.461 81.8914 125.406 82.0809 125.35 82.2694 125.294 82.4585 125.236 82.6466 125.179 82.8348 125.121 83.0229 125.062 83.2107 125.003 83.398 124.943 83.5853 124.882 83.7722 124.821 83.959 124.76 84.1455 124.698 84.3315 124.635 84.5175 124.572 84.7031 124.508 84.8887 124.444 85.0739 124.379 85.2587 124.314 85.4434 124.247 85.6277 124.181 85.812 124.114 85.9959 124.046 86.1794 123.978 86.3629 123.91 86.5459 123.84 86.729 123.77 86.9111 123.7 87.0938 123.629 87.2755 123.558 87.4573 123.486 87.639 123.413 87.8199 123.34 88.0013 123.267 88.1818 123.193 88.3622 123.118 88.5423 123.043 88.7223 122.967 88.9016 122.891 89.0812 122.814 89.2599 122.737 89.4387 122.659 89.6171 122.581 89.7954 122.502 89.9733 122.423 90.1508 122.343 90.3283 122.262 90.5054 122.182 90.682 122.1 90.8582 122.018 91.0345 121.935 91.2102 121.853 91.386 121.769 91.5614 121.685 91.7363 121.6 91.9113 121.515 92.0853 121.43 92.2594 121.344 92.4335 121.257 92.6067 121.17 92.78 121.082 92.9532 120.994 93.1255 120.905 93.2979 120.816 93.4699 120.727 93.6418 120.637 93.8133 120.546 93.9844 120.454 94.1551 120.363 94.3253 120.271 94.4956 120.178 94.6654 120.085 94.8352 119.991 95.0046 119.897 95.1731 119.802 95.3421 119.707 95.5102 119.612 95.6783 119.516 95.846 119.419 96.0132 119.322 96.1805 119.224 96.3469 119.126 96.5133 119.028 96.6797 118.929 96.8452 118.829 97.0108 118.729 97.1759 118.629 97.3406 118.528 97.5049 118.426 97.6691 118.324 97.833 118.222 97.9964 118.119 98.1598 118.015 98.3223 117.911 98.4849 117.807 98.647 117.702 98.8087 117.597 98.9705 117.491 99.1313 117.385 99.2922 117.278 99.4526 117.171 99.613 117.064 99.7726 116.955 99.9322 116.847 100.091 116.738 100.25 116.628 100.408 116.518 100.566 116.408 100.724 116.297 100.881 116.186 101.039 116.074 101.195 115.962 101.352 115.849 101.507 115.736 101.663 115.622 101.818 115.508 101.973 115.394 102.128 115.279 102.282 115.163 102.436 115.047 102.589 114.931 102.743 114.814 102.895 114.697 103.048 114.579 103.2 114.461 103.351 114.342 103.503 114.223 103.654 114.104 103.804 113.984 103.954 113.864 104.105 113.743 104.254 113.622 104.403 113.5 104.552 113.378 104.7 113.255 104.848 113.132 104.996 113.009 105.143 112.885 105.29 112.761 105.437 112.636 105.583 112.511 105.728 112.385 105.873 112.259 106.019 112.133 106.163 112.006 106.307 111.879 106.451 111.751 106.595 111.623 106.738 111.495 106.88 111.366 107.023 111.236 107.165 111.107 107.306 110.976 107.447 110.846 107.588 110.714 107.728 110.583 107.868 110.451 108.008 110.319 108.147 110.186 108.286 110.053 108.424 109.92 108.562 109.786 108.7 109.651 108.837 109.517 108.974 109.382 109.11 109.246 109.246 109.11 109.382 108.974 109.517 108.837 109.651 108.7 109.786 108.562 109.92 108.424 110.053 108.286 110.186 108.147 110.319 108.008 110.451 107.868 110.583 107.728 110.714 107.588 110.846 107.447 110.976 107.306 111.107 107.165 111.236 107.023 111.366 106.88 111.495 106.738 111.623 106.595 111.751 106.451 111.879 106.307 112.006 106.163 112.133 106.019 112.259 105.873 112.385 105.728 112.511 105.583 112.636 105.437 112.761 105.29 112.885 105.143 113.009 104.996 113.132 104.848 113.255 104.7 113.378 104.552 113.5 104.403 113.622 104.254 113.743 104.105 113.864 103.954 113.984 103.804 114.104 103.654 114.223 103.503 114.342 103.351 114.461 103.2 114.579 103.048 114.697 102.895 114.814 102.743 114.931 102.589 115.047 102.436 115.163 102.282 115.279 102.128 115.394 101.973 115.508 101.818 115.622 101.663 115.736 101.507 115.849 101.352 115.962 101.195 116.074 101.039 116.186 100.881 116.297 100.724 116.408 100.566 116.518 100.408 116.628 100.25 116.738 100.091 116.847 99.9322 116.955 99.7726 117.064 99.613 117.171 99.4526 117.278 99.2922 117.385 99.1313 117.491 98.9705 117.597 98.8087 117.702 98.647 117.807 98.4849 117.911 98.3223 118.015 98.1598 118.119 97.9964 118.222 97.833 118.324 97.6691 118.426 97.5049 118.528 97.3406 118.629 97.1759 118.729 97.0108 118.829 96.8452 118.929 96.6797 119.028 96.5133 119.126 96.3469 119.224 96.1805 119.322 96.0132 119.419 95.846 119.516 95.6783 119.612 95.5102 119.707 95.3421 119.802 95.1731 119.897 95.0046 119.991 94.8352 120.085 94.6654 120.178 94.4956 120.271 94.3253 120.363 94.1551 120.454 93.9844 120.546 93.8133 120.637 93.6418 120.727 93.4699 120.816 93.2979 120.905 93.1255 120.994 92.9532 121.082 92.78 121.17 92.6067 121.257 92.4335 121.344 92.2594 121.43 92.0853 121.515 91.9113 121.6 91.7363 121.685 91.5614 121.769 91.386 121.853 91.2102 121.935 91.0345 122.018 90.8582 122.1 90.682 122.182 90.5054 122.262 90.3283 122.343 90.1508 122.423 89.9733 122.502 89.7954 122.581 89.6171 122.659 89.4387 122.737 89.2599 122.814 89.0812 122.891 88.9016 122.967 88.7223 123.043 88.5423 123.118 88.3622 123.193 88.1818 123.267 88.0013 123.34 87.8199 123.413 87.639 123.486 87.4573 123.558 87.2755 123.629 87.0938 123.7 86.9111 123.77 86.729 123.84 86.5459 123.91 86.3629 123.978 86.1794 124.046 85.9959 124.114 85.812 124.181 85.6277 124.247 85.4434 124.314 85.2587 124.379 85.0739 124.444 84.8887 124.508 84.7031 124.572 84.5175 124.635 84.3315 124.698 84.1455 124.76 83.959 124.821 83.7722 124.882 83.5853 124.943 83.398 125.003 83.2107 125.062 83.0229 125.121 82.8348 125.179 82.6466 125.236 82.4585 125.294 82.2694 125.35 82.0809 125.406 81.8914 125.461 81.702 125.516 81.5125 125.571 81.3227 125.624 81.1324 125.677 80.9421 125.73 80.7514 125.782 80.5606 125.833 80.3695 125.884 80.1783 125.934 79.9868 125.984 79.7948 126.033 79.6028 126.081 79.4108 126.129 79.2183 126.176 79.0255 126.223 78.8326 126.269 78.6394 126.315 78.4461 126.36 78.2528 126.404 78.0587 126.448 77.865 126.491 77.6704 126.534 77.4763 126.576 77.2813 126.618 77.0867 126.659 76.8913 126.699 76.6963 126.738 76.5005 126.778 76.3046 126.816 76.1088 126.854 75.9125 126.891 75.7163 126.928 75.5196 126.964 75.3229 126.999 75.1258 127.034 74.9286 127.069 74.7311 127.103 74.5335 127.136 74.336 127.168 74.1376 127.2 73.9396 127.231 73.7412 127.262 73.5424 127.292 73.3436 127.322 73.1447 127.35 72.9455 127.379 72.7458 127.406 72.5466 127.433 72.3465 127.46 72.1463 127.485 71.9462 127.511 71.7461 127.535 71.5456 127.559 71.3446 127.582 71.1437 127.605 70.9427 127.627 70.7413 127.648 70.5395 127.669 70.3381 127.689 70.1363 127.709 69.9341 127.728 69.7318 127.746 69.5296 127.764 69.3269 127.781 69.1243 127.797 68.9212 127.813 68.7181 127.828 68.5146 127.843 68.3115 127.857 68.1075 127.87 67.904 127.883 67.6996 127.895 67.4957 127.906 67.2913 127.917 67.0869 127.927 66.8821 127.936 66.6773 127.945 66.4725 127.953 66.2673 127.96 66.0621 127.967 65.8564 127.974 65.6508 127.979 65.4451 127.984 65.239 127.988 65.033 127.992 64.8265 127.995 64.6204 127.997 64.4134 127.999 64.2069 128 64 128 63.7931 128 63.5866 127.999 63.3796 127.997 63.1735 127.995 62.967 127.992 62.761 127.988 62.5549 127.984 62.3492 127.979 62.1436 127.974 61.9379 127.967 61.7327 127.96 61.5275 127.953 61.3227 127.945 61.1179 127.936 60.9131 127.927 60.7087 127.917 60.5043 127.906 60.3004 127.895 60.096 127.883 59.8925 127.87 59.6885 127.857 59.4854 127.843 59.2819 127.828 59.0788 127.813 58.8757 127.797 58.6731 127.781 58.4704 127.764 58.2682 127.746 58.0659 127.728 57.8637 127.709 57.6619 127.689 57.4605 127.669 57.2587 127.648 57.0573 127.627 56.8563 127.605 56.6554 127.582 56.4544 127.559 56.2539 127.535 56.0538 127.511 55.8537 127.485 55.6535 127.46 55.4534 127.433 55.2542 127.406 55.0545 127.379 54.8553 127.35 54.6564 127.322 54.4576 127.292 54.2588 127.262 54.0604 127.231 53.8624 127.2 53.664 127.168 53.4665 127.136 53.2689 127.103 53.0714 127.069 52.8742 127.034 52.6771 126.999 52.4804 126.964 52.2837 126.928 52.0875 126.891 51.8912 126.854 51.6954 126.816 51.4995 126.778 51.3037 126.738 51.1087 126.699 50.9133 126.659 50.7187 126.618 50.5237 126.576 50.3296 126.534 50.135 126.491 49.9413 126.448 49.7472 126.404 49.5539 126.36 49.3606 126.315 49.1674 126.269 48.9745 126.223 48.7817 126.176 48.5892 126.129 48.3972 126.081 48.2052 126.033 48.0132 125.984 47.8217 125.934 47.6305 125.884 47.4394 125.833 47.2486 125.782 47.0579 125.73 46.8676 125.677 46.6773 125.624 46.4875 125.571 46.298 125.516 46.1086 125.461 45.9191 125.406 45.7306 125.35 45.5415 125.294 45.3534 125.236 45.1652 125.179 44.9771 125.121 44.7893 125.062 44.602 125.003 44.4147 124.943 44.2278 124.882 44.041 124.821 43.8545 124.76 43.6685 124.698 43.4825 124.635 43.2969 124.572 43.1113 124.508 42.9261 124.444 42.7413 124.379 42.5566 124.314 42.3723 124.247 42.1879 124.181 42.0041 124.114 41.8206 124.046 41.6371 123.978 41.4541 123.91 41.271 123.84 41.0889 123.77 40.9062 123.7 40.7245 123.629 40.5427 123.558 40.361 123.486 40.1801 123.413 39.9987 123.34 39.8182 123.267 39.6378 123.193 39.4577 123.118 39.2777 123.043 39.0985 122.967 38.9188 122.891 38.7401 122.814 38.5613 122.737 38.3829 122.659 38.2046 122.581 38.0267 122.502 37.8492 122.423 37.6717 122.343 37.4946 122.262 37.318 122.182 37.1418 122.1 36.9655 122.018 36.7898 121.935 36.614 121.853 36.4386 121.769 36.2637 121.685 36.0887 121.6 35.9147 121.515 35.7406 121.43 35.5665 121.344 35.3933 121.257 35.2201 121.17 35.0468 121.082 34.8745 120.994 34.7021 120.905 34.5301 120.816 34.3582 120.727 34.1867 120.637 34.0156 120.546 33.8449 120.454 33.6747 120.363 33.5044 120.271 33.3346 120.178 33.1648 120.085 32.9954 119.991 32.8269 119.897 32.6579 119.802 32.4898 119.707 32.3217 119.612 32.154 119.516 31.9868 119.419 31.8195 119.322 31.6531 119.224 31.4867 119.126 31.3203 119.028 31.1548 118.929 30.9892 118.829 30.8241 118.729 30.6594 118.629 30.4951 118.528 30.3309 118.426 30.167 118.324 30.0036 118.222 29.8402 118.119 29.6777 118.015 29.5151 117.911 29.353 117.807 29.1913 117.702 29.0295 117.597 28.8687 117.491 28.7078 117.385 28.5474 117.278 28.387 117.171 28.2274 117.064 28.0678 116.955 27.9087 116.847 27.75 116.738 27.5917 116.628 27.4338 116.518 27.2759 116.408 27.1185 116.297 26.9615 116.186 26.8049 116.074 26.6483 115.962 26.4926 115.849 26.3369 115.736 26.1815 115.622 26.0267 115.508 25.8722 115.394 25.7178 115.279 25.5642 115.163 25.4106 115.047 25.2574 114.931 25.1046 114.814 24.9523 114.697 24.8004 114.579 24.6485 114.461 24.4971 114.342 24.3465 114.223 24.1958 114.104 24.0457 113.984 23.8955 113.864 23.7461 113.743 23.5968 113.622 23.4483 113.5 23.2998 113.378 23.1518 113.255 23.0042 113.132 22.857 113.009 22.7102 112.885 22.5634 112.761 22.4175 112.636 22.2716 112.511 22.1265 112.385 21.9814 112.259 21.8368 112.133 21.6926 112.006 21.5488 111.879 21.4054 111.751 21.2621 111.623 21.1196 111.495 20.9771 111.366 20.8354 111.236 20.6938 111.107 20.5525 110.976 20.4122 110.846 20.2718 110.714 20.1318 110.583 19.9923 110.451 19.8528 110.319 19.7141 110.186 19.5759 110.053 19.4377 109.92 19.3003 109.786 19.1633 109.651 19.0263 109.517 18.8898 109.382 18.7541 109.246 18.6185 109.11 18.4832 108.974 18.3488 108.837 18.2144 108.7 18.0804 108.562 17.9469 108.424 17.8138 108.286 17.6811 108.147 17.5488 108.008 17.417 107.868 17.2855 107.728 17.1541 107.588 17.0236 107.447 16.8934 107.306 16.7637 107.165 16.6345 107.023 16.5052 106.88 16.3767 106.738 16.2487 106.595 16.1212 106.451 15.9936 106.307 15.8669 106.163 15.7406 106.019 15.6147 105.873 15.4889 105.728 15.3638 105.583 15.2393 105.437 15.1147 105.29 14.9909 105.143 14.8676 104.996 14.7447 104.848 14.6223 104.7 14.4998 104.552 14.3782 104.403 14.2571 104.254 14.1363 104.105 14.016 103.954 13.8961 103.804 13.7766 103.654 13.6576 103.503 13.539 103.351 13.4208 103.2 13.303 103.048 13.1861 102.895 13.0692 102.743 12.9527 102.589 12.8371 102.436 12.7215 102.282 12.6063 102.128 12.4919 101.973 12.378 101.818 12.2641 101.663 12.151 101.507 12.0384 101.352 11.9262 101.195 11.8144 101.039 11.703 100.881 11.5921 100.724 11.4816 100.566 11.3715 100.408 11.2623 100.25 11.1531 100.091 11.0447 99.9322 10.9363 99.7726 10.8288 99.613 10.7217 99.4526 10.615 99.2922 10.5088 99.1313 10.403 98.9705 10.2976 98.8087 10.1926 98.647 10.0885 98.4849 9.98485 98.3223 9.88117 98.1598 9.77835 97.9964 9.67595 97.833 9.57397 97.6691 9.47243 97.5049 9.37131 97.3406 9.27104 97.1759 9.17077 97.0108 9.07136 96.8452 8.97237 96.6797 8.87381 96.5133 8.77568 96.3469 8.67797 96.1805 8.58112 96.0132 8.48427 95.846 8.38827 95.6783 8.29269 95.5102 8.19755 95.3421 8.10283 95.1731 8.00853 95.0046 7.91509 94.8352 7.82208 94.6654 7.72907 94.4956 7.63691 94.3253 7.5456 94.1551 7.45429 93.9844 7.36341 93.8133 7.27339 93.6418 7.18379 93.4699 7.09461 93.2979 7.00587 93.1255 6.91797 92.9532 6.83008 92.78 6.74304 92.6067 6.65643 92.4335 6.57024 92.2594 6.48491 92.0853 6.39957 91.9113 6.31509 91.7363 6.23104 91.5614 6.14741 91.386 6.06464 91.2102 5.98187 91.0345 5.89995 90.8582 5.81845 90.682 5.73781 90.5054 5.65717 90.3283 5.57739 90.1508 5.49803 89.9733 5.41909 89.7954 5.34059 89.6171 5.26293 89.4387 5.18571 89.2599 5.10891 89.0812 5.03296 88.9016 4.95701 88.7223 4.88192 88.5423 4.80725 88.3622 4.73344 88.1818 4.65963 88.0013 4.58667 87.8199 4.51413 87.639 4.44203 87.4573 4.37077 87.2755 4.29995 87.0938 4.22955 86.9111 4.16 86.729 4.09045 86.5459 4.02176 86.3629 3.95392 86.1794 3.88608 85.9959 3.81909 85.812 3.75253 85.6277 3.6864 85.4434 3.62112 85.2587 3.55627 85.0739 3.49184 84.8887 3.42827 84.7031 3.36512 84.5175 3.3024 84.3315 3.24011 84.1455 3.17867 83.959 3.11765 83.7722 3.05749 83.5853 2.99733 83.398 2.93803 83.2107 2.87915 83.0229 2.82112 82.8348 2.76352 82.6466 2.70635 82.4585 2.65003 82.2694 2.59413 82.0809 2.53867 81.8914 2.48405 81.702 2.42944 81.5125 2.37611 81.3227 2.32277 81.1324 2.27029 80.9421 2.21824 80.7514 2.16704 80.5606 2.11627 80.3695 2.06592 80.1783 2.01643 79.9868 1.96736 79.7948 1.91872 79.6028 1.87093 79.4108 1.82357 79.2183 1.77664 79.0255 1.73056 78.8326 1.68491 78.6394 1.64011 78.4461 1.59573 78.2528 1.55179 78.0587 1.50869 77.865 1.46603 77.6704 1.42379 77.4763 1.3824 77.2813 1.34144 77.0867 1.30133 76.8913 1.26165 76.6963 1.2224 76.5005 1.184 76.3046 1.14603 76.1088 1.10891 75.9125 1.07179 75.7163 1.03595 75.5196 1.00053 75.3229 0.965547 75.1258 0.930987 74.9286 0.89728 74.7311 0.864427 74.5335 0.832 74.336 0.8 74.1376 0.768853 73.9396 0.738133 73.7412 0.70784 73.5424 0.6784 73.3436 0.649813 73.1447 0.621227 72.9455 0.59392 72.7458 0.566613 72.5466 0.54016 72.3465 0.51456 72.1463 0.489387 71.9462 0.465067 71.7461 0.441173 71.5456 0.417707 71.3446 0.395093 71.1437 0.372907 70.9427 0.351573 70.7413 0.330667 70.5395 0.310613 70.3381 0.290987 70.1363 0.272213 69.9341 0.253867 69.7318 0.235947 69.5296 0.21888 69.3269 0.202667 69.1243 0.18688 68.9212 0.17152 68.7181 0.157013 68.5146 0.14336 68.3115 0.130133 68.1075 0.117333 67.904 0.105387 67.6996 0.0938667 67.4957 0.0832 67.2913 0.0733867 67.0869 0.064 66.8821 0.05504 66.6773 0.0469333 66.4725 0.03968 66.2673 0.0328533 66.0621 0.0264533 65.8564 0.0209067 65.6508 0.0162133 65.4451 0.0119467 65.239 0.00810667 65.033 0.00512 64.8265 0.00298667 64.6204 0.00128 64.4134 0.000426667 64.2069 0 64 0.000426667 63.7931 0.00128 63.5866 0.00298667 63.3796 0.00512 63.1735 0.00810667 62.967 0.0119467 62.761 0.0162133 62.5549 0.0209067 62.3492 0.0264533 62.1436 0.0328533 61.9379 0.03968 61.7327 0.0469333 61.5275 0.05504 61.3227 0.064 61.1179 0.0733867 60.9131 0.0832 60.7087 0.0938667 60.5043 0.105387 60.3004 0.117333 60.096 0.130133 59.8925 0.14336 59.6885 0.157013 59.4854 0.17152 59.2819 0.18688 59.0788 0.202667 58.8757 0.21888 58.6731 0.235947 58.4704 0.253867 58.2682 0.272213 58.0659 0.290987 57.8637 0.310613 57.6619 0.330667 57.4605 0.351573 57.2587 0.372907 57.0573 0.395093 56.8563 0.417707 56.6554 0.441173 56.4544 0.465067 56.2539 0.489387 56.0538 0.51456 55.8537 0.54016 55.6535 0.566613 55.4534 0.59392 55.2542 0.621227 55.0545 0.649813 54.8553 0.6784 54.6564 0.70784 54.4576 0.738133 54.2588 0.768853 54.0604 0.8 53.8624 0.832 53.664 0.864427 53.4665 0.89728 53.2689 0.930987 53.0714 0.965547 52.8742 1.00053 52.6771 1.03595 52.4804 1.07179 52.2837 1.10891 52.0875 1.14603 51.8912 1.184 51.6954 1.2224 51.4995 1.26165 51.3037 1.30133 51.1087 1.34144 50.9133 1.3824 50.7187 1.42379 50.5237 1.46603 50.3296 1.50869 50.135 1.55179 49.9413 1.59573 49.7472 1.64011 49.5539 1.68491 49.3606 1.73056 49.1674 1.77664 48.9745 1.82357 48.7817 1.87093 48.5892 1.91872 48.3972 1.96736 48.2052 2.01643 48.0132 2.06592 47.8217 2.11627 47.6305 2.16704 47.4394 2.21824 47.2486 2.27029 47.0579 2.32277 46.8676 2.37611 46.6773 2.42944 46.4875 2.48405 46.298 2.53867 46.1086 2.59413 45.9191 2.65003 45.7306 2.70635 45.5415 2.76352 45.3534 2.82112 45.1652 2.87915 44.9771 2.93803 44.7893 2.99733 44.602 3.05749 44.4147 3.11765 44.2278 3.17867 44.041 3.24011 43.8545 3.3024 43.6685 3.36512 43.4825 3.42827 43.2969 3.49184 43.1113 3.55627 42.9261 3.62112 42.7413 3.6864 42.5566 3.75253 42.3723 3.81909 42.1879 3.88608 42.0041 3.95392 41.8206 4.02176 41.6371 4.09045 41.4541 4.16 41.271 4.22955 41.0889 4.29995 40.9062 4.37077 40.7245 4.44203 40.5427 4.51413 40.361 4.58667 40.1801 4.65963 39.9987 4.73344 39.8182 4.80725 39.6378 4.88192 39.4577 4.95701 39.2777 5.03296 39.0985 5.10891 38.9188 5.18571 38.7401 5.26293 38.5613 5.34059 38.3829 5.41909 38.2046 5.49803 38.0267 5.57739 37.8492 5.65717 37.6717 5.73781 37.4946 5.81845 37.318 5.89995 37.1418 5.98187 36.9655 6.06464 36.7898 6.14741 36.614 6.23104 36.4386 6.31509 36.2637 6.39957 36.0887 6.48491 35.9147 6.57024 35.7406 6.65643 35.5665 6.74304 35.3933 6.83008 35.2201 6.91797 35.0468 7.00587 34.8745 7.09461 34.7021 7.18379 34.5301 7.27339 34.3582 7.36341 34.1867 7.45429 34.0156 7.5456 33.8449 7.63691 33.6747 7.72907 33.5044 7.82208 33.3346 7.91509 33.1648 8.00853 32.9954 8.10283 32.8269 8.19755 32.6579 8.29269 32.4898 8.38827 32.3217 8.48427 32.154 8.58112 31.9868 8.67797 31.8195 8.77568 31.6531 8.87381 31.4867 8.97237 31.3203 9.07136 31.1548 9.17077 30.9892 9.27104 30.8241 9.37131 30.6594 9.47243 30.4951 9.57397 30.3309 9.67595 30.167 9.77835 30.0036 9.88117 29.8402 9.98485 29.6777 10.0885 29.5151 10.1926 29.353 10.2976 29.1913 10.403 29.0295 10.5088 28.8687 10.615 28.7078 10.7217 28.5474 10.8288 28.387 10.9363 28.2274 11.0447 28.0678 11.1531 27.9087 11.2623 27.75 11.3715 27.5917 11.4816 27.4338 11.5921 27.2759 11.703 27.1185 11.8144 26.9615 11.9262 26.8049 12.0384 26.6483 12.151 26.4926 12.2641 26.3369 12.378 26.1815 12.4919 26.0267 12.6063 25.8722 12.7215 25.7178 12.8371 25.5642 12.9527 25.4106 13.0692 25.2574 13.1861 25.1046 13.303 24.9523 13.4208 24.8004 13.539 24.6485 13.6576 24.4971 13.7766 24.3465 13.8961 24.1958 14.016 24.0457 14.1363 23.8955 14.2571 23.7461 14.3782 23.5968 14.4998 23.4483 14.6223 23.2998 14.7447 23.1518 14.8676 23.0042 14.9909 22.857 15.1147 22.7102 15.2393 22.5634 15.3638 22.4175 15.4889 22.2716 15.6147 22.1265 15.7406 21.9814 15.8669 21.8368 15.9936 21.6926 16.1212 21.5488 16.2487 21.4054 16.3767 21.2621 16.5052 21.1196 16.6345 20.9771 16.7637 20.8354 16.8934 20.6938 17.0236 20.5525 17.1541 20.4122 17.2855 20.2718 17.417 20.1318 17.5488 19.9923 17.6811 19.8528 17.8138 19.7141 17.9469 19.5759 18.0804 19.4377 18.2144 19.3003 18.3488 19.1633 18.4832 19.0263 18.6185 18.8898 18.7541 18.7541 18.8898 18.6185 19.0263 18.4832 19.1633 18.3488 19.3003 18.2144 19.4377 18.0804 19.5759 17.9469 19.7141 17.8138 19.8528 17.6811 19.9923 17.5488 20.1318 17.417 20.2718 17.2855 20.4122 17.1541 20.5525 17.0236 20.6938 16.8934 20.8354 16.7637 20.9771 16.6345 21.1196 16.5052 21.2621 16.3767 21.4054 16.2487 21.5488 16.1212 21.6926 15.9936 21.8368 15.8669 21.9814 15.7406 22.1265 15.6147 22.2716 15.4889 22.4175 15.3638 22.5634 15.2393 22.7102 15.1147 22.857 14.9909 23.0042 14.8676 23.1518 14.7447 23.2998 14.6223 23.4483 14.4998 23.5968 14.3782 23.7461 14.2571 23.8955 14.1363 24.0457 14.016 24.1958 13.8961 24.3465 13.7766 24.4971 13.6576 24.6485 13.539 24.8004 13.4208 24.9523 13.303 25.1046 13.1861 25.2574 13.0692 25.4106 12.9527 25.5642 12.8371 25.7178 12.7215 25.8722 12.6063 26.0267 12.4919 26.1815 12.378 26.3369 12.2641 26.4926 12.151 26.6483 12.0384 26.8049 11.9262 26.9615 11.8144 27.1185 11.703 27.2759 11.5921 27.4338 11.4816 27.5917 11.3715 27.75 11.2623 27.9087 11.1531 28.0678 11.0447 28.2274 10.9363 28.387 10.8288 28.5474 10.7217 28.7078 10.615 28.8687 10.5088 29.0295 10.403 29.1913 10.2976 29.353 10.1926 29.5151 10.0885 29.6777 9.98485 29.8402 9.88117 30.0036 9.77835 30.167 9.67595 30.3309 9.57397 30.4951 9.47243 30.6594 9.37131 30.8241 9.27104 30.9892 9.17077 31.1548 9.07136 31.3203 8.97237 31.4867 8.87381 31.6531 8.77568 31.8195 8.67797 31.9868 8.58112 32.154 8.48427 32.3217 8.38827 32.4898 8.29269 32.6579 8.19755 32.8269 8.10283 32.9954 8.00853 33.1648 7.91509 33.3346 7.82208 33.5044 7.72907 33.6747 7.63691 33.8449 7.5456 34.0156 7.45429 34.1867 7.36341 34.3582 7.27339 34.5301 7.18379 34.7021 7.09461 34.8745 7.00587 35.0468 6.91797 35.2201 6.83008 35.3933 6.74304 35.5665 6.65643 35.7406 6.57024 35.9147 6.48491 36.0887 6.39957 36.2637 6.31509 36.4386 6.23104 36.614 6.14741 36.7898 6.06464 36.9655 5.98187 37.1418 5.89995 37.318 5.81845 37.4946 5.73781 37.6717 5.65717 37.8492 5.57739 38.0267 5.49803 38.2046 5.41909 38.3829 5.34059 38.5613 5.26293 38.7401 5.18571 38.9188 5.10891 39.0985 5.03296 39.2777 4.95701 39.4577 4.88192 39.6378 4.80725 39.8182 4.73344 39.9987 4.65963 40.1801 4.58667 40.361 4.51413 40.5427 4.44203 40.7245 4.37077 40.9062 4.29995 41.0889 4.22955 41.271 4.16 41.4541 4.09045 41.6371 4.02176 41.8206 3.95392 42.0041 3.88608 42.1879 3.81909 42.3723 3.75253 42.5566 3.6864 42.7413 3.62112 42.9261 3.55627 43.1113 3.49184 43.2969 3.42827 43.4825 3.36512 43.6685 3.3024 43.8545 3.24011 44.041 3.17867 44.2278 3.11765 44.4147 3.05749 44.602 2.99733 44.7893 2.93803 44.9771 2.87915 45.1652 2.82112 45.3534 2.76352 45.5415 2.70635 45.7306 2.65003 45.9191 2.59413 46.1086 2.53867 46.298 2.48405 46.4875 2.42944 46.6773 2.37611 46.8676 2.32277 47.0579 2.27029 47.2486 2.21824 47.4394 2.16704 47.6305 2.11627 47.8217 2.06592 48.0132 2.01643 48.2052 1.96736 48.3972 1.91872 48.5892 1.87093 48.7817 1.82357 48.9745 1.77664 49.1674 1.73056 49.3606 1.68491 49.5539 1.64011 49.7472 1.59573 49.9413 1.55179 50.135 1.50869 50.3296 1.46603 50.5237 1.42379 50.7187 1.3824 50.9133 1.34144 51.1087 1.30133 51.3037 1.26165 51.4995 1.2224 51.6954 1.184 51.8912 1.14603 52.0875 1.10891 52.2837 1.07179 52.4804 1.03595 52.6771 1.00053 52.8742 0.965547 53.0714 0.930987 53.2689 0.89728 53.4665 0.864427 53.664 0.832 53.8624 0.8 54.0604 0.768853 54.2588 0.738133 54.4576 0.70784 54.6564 0.6784 54.8553 0.649813 55.0545 0.621227 55.2542 0.59392 55.4534 0.566613 55.6535 0.54016 55.8537 0.51456 56.0538 0.489387 56.2539 0.465067 56.4544 0.441173 56.6554 0.417707 56.8563 0.395093 57.0573 0.372907 57.2587 0.351573 57.4605 0.330667 57.6619 0.310613 57.8637 0.290987 58.0659 0.272213 58.2682 0.253867 58.4704 0.235947 58.6731 0.21888 58.8757 0.202667 59.0788 0.18688 59.2819 0.17152 59.4854 0.157013 59.6885 0.14336 59.8925 0.130133 60.096 0.117333 60.3004 0.105387 60.5043 0.0938667 60.7087 0.0832 60.9131 0.0733867 61.1179 0.064 61.3227 0.05504 61.5275 0.0469333 61.7327 0.03968 61.9379 0.0328533 62.1436 0.0264533 62.3492 0.0209067 62.5549 0.0162133 62.761 0.0119467 62.967 0.00810667 63.1735 0.00512 63.3796 0.00298667 63.5866 0.00128 63.7931 0.000426667 64 0 64.2069 0.000426667ZM63.8148 6.82709 63.6297 6.82795 63.4449 6.82923 63.2597 6.83136 63.0754 6.83392 62.8907 6.83733 62.7063 6.84117 62.5225 6.84544 62.3381 6.85056 62.1547 6.85611 61.9708 6.86208 61.7873 6.86891 61.6038 6.87616 61.4208 6.88384 61.2378 6.89237 61.0547 6.90133 60.8721 6.91072 60.6895 6.92096 60.5069 6.93163 60.3247 6.94272 60.1425 6.95467 59.9608 6.96704 59.779 6.98027 59.5977 6.99392 59.4159 7.008 59.235 7.02251 59.0537 7.03787 58.8727 7.05365 58.6923 7.06987 58.5114 7.08693 58.3313 7.10443 58.1508 7.12235 57.9708 7.14112 57.7911 7.15989 57.6111 7.17995 57.4319 7.2 57.2523 7.22091 57.0731 7.24224 56.8943 7.264 56.7155 7.28661 56.5367 7.30965 56.3584 7.33312 56.1801 7.35744 56.0017 7.38219 55.8238 7.40736 55.6463 7.43296 55.4688 7.45941 55.2913 7.48629 55.1138 7.5136 54.9372 7.54133 54.7601 7.56992 54.5835 7.59893 54.4073 7.62837 54.2306 7.65867 54.0548 7.68939 53.879 7.72053 53.7033 7.75211 53.5275 7.78453 53.3521 7.81696 53.1772 7.85067 53.0022 7.88437 52.8273 7.91851 52.6528 7.95349 52.4787 7.98891 52.3042 8.02517 52.1306 8.06144 51.9565 8.09856 51.7833 8.13611 51.6096 8.17408 51.4364 8.21248 51.2636 8.25173 51.0908 8.29141 50.9184 8.33152 50.746 8.37248 50.5737 8.41344 50.4017 8.45525 50.2298 8.49749 50.0582 8.54016 49.8871 8.58368 49.7161 8.6272 49.545 8.67157 49.3743 8.71637 49.2036 8.7616 49.0334 8.80768 48.8631 8.85376 48.6933 8.90069 48.5239 8.94805 48.3541 8.99627 48.1852 9.04448 48.0158 9.09355 47.8473 9.14304 47.6787 9.19296 47.5102 9.24331 47.3421 9.29408 47.174 9.34571 47.0063 9.39733 46.8386 9.44981 46.6714 9.50272 46.5045 9.55648 46.3377 9.61024 46.1709 9.66443 46.0045 9.71947 45.8385 9.77493 45.6725 9.83083 45.5066 9.88715 45.341 9.94432 45.1759 10.0015 45.0108 10.0595 44.8461 10.118 44.6814 10.1769 44.5171 10.2362 44.3529 10.2959 44.189 10.3565 44.0256 10.4171 43.8622 10.4785 43.6988 10.5404 43.5358 10.6027 43.3732 10.6654 43.2107 10.7285 43.0485 10.7925 42.8864 10.8565 42.7247 10.9214 42.5634 10.9862 42.4017 11.0519 42.2409 11.1181 42.08 11.1846 41.9196 11.2521 41.7591 11.3195 41.5991 11.3873 41.4396 11.456 41.28 11.5251 41.1204 11.5942 40.9613 11.6642 40.8026 11.7346 40.6443 11.8054 40.486 11.8771 40.3277 11.9488 40.1698 12.0209 40.0124 12.0939 39.8549 12.1668 39.6979 12.2406 39.5413 12.3149 39.3847 12.3891 39.2286 12.4642 39.0724 12.5397 38.9167 12.6157 38.7614 12.6925 38.6061 12.7693 38.4512 12.8465 38.2963 12.9242 38.1419 13.0027 37.9878 13.0812 37.8338 13.1605 37.6802 13.2399 37.527 13.3201 37.3739 13.4007 37.2211 13.4814 37.0684 13.5629 36.9165 13.6448 36.7642 13.7271 36.6127 13.8099 36.4612 13.8931 36.3102 13.9767 36.1591 14.0608 36.0085 14.1453 35.8579 14.2306 35.7082 14.3159 35.5584 14.4017 35.4086 14.4879 35.2597 14.5749 35.1104 14.662 34.9619 14.7494 34.8134 14.8378 34.6654 14.9261 34.5178 15.0153 34.3701 15.1044 34.2229 15.194 34.0762 15.2845 33.9294 15.3749 33.783 15.4662 33.6371 15.5575 33.4912 15.6497 33.3457 15.7419 33.2006 15.8349 33.0556 15.9279 32.9114 16.0218 32.7667 16.1156 32.6229 16.2103 32.4791 16.3051 32.3358 16.4006 32.1929 16.4962 32.0499 16.5926 31.9074 16.6891 31.7653 16.7863 31.6233 16.8836 31.482 16.9813 31.3404 17.0799 31.1996 17.1785 31.0588 17.2774 30.9188 17.3769 30.7785 17.4771 30.6389 17.5774 30.4994 17.6781 30.3603 17.7792 30.2217 17.8807 30.083 17.9827 29.9452 18.0851 29.8069 18.1879 29.6695 18.2912 29.5326 18.3949 29.3956 18.4986 29.2591 18.6031 29.1226 18.7081 28.9869 18.813 28.8512 18.9188 28.7159 19.0246 28.5811 19.1313 28.4463 19.238 28.3123 19.3451 28.1783 19.4526 28.0444 19.5605 27.9113 19.6689 27.7781 19.7777 27.6454 19.8869 27.5132 19.9966 27.3813 20.1067 27.2495 20.2167 27.1185 20.3277 26.9875 20.4386 26.8565 20.55 26.7264 20.6618 26.5963 20.7744 26.467 20.887 26.3377 20.9997 26.2084 21.1132 26.08 21.2271 25.9516 21.341 25.824 21.4558 25.6964 21.5706 25.5689 21.6858 25.4421 21.8018 25.3154 21.9179 25.1895 22.0339 25.0637 22.1508 24.9382 22.2682 24.8128 22.3855 24.6882 22.5037 24.5636 22.6219 24.4399 22.7405 24.3162 22.8595 24.1924 22.979 24.0695 23.0985 23.9471 23.2188 23.8246 23.3391 23.7026 23.4598 23.5814 23.5814 23.4598 23.7026 23.3391 23.8246 23.2188 23.9471 23.0985 24.0695 22.979 24.1924 22.8595 24.3162 22.7405 24.4399 22.6219 24.5636 22.5037 24.6882 22.3855 24.8128 22.2682 24.9382 22.1508 25.0637 22.0339 25.1895 21.9179 25.3154 21.8018 25.4421 21.6858 25.5689 21.5706 25.6964 21.4558 25.824 21.341 25.9516 21.2271 26.08 21.1132 26.2084 20.9997 26.3377 20.887 26.467 20.7744 26.5963 20.6618 26.7264 20.55 26.8565 20.4386 26.9875 20.3277 27.1185 20.2167 27.2495 20.1067 27.3813 19.9966 27.5132 19.8869 27.6454 19.7777 27.7781 19.6689 27.9113 19.5605 28.0444 19.4526 28.1783 19.3451 28.3123 19.238 28.4463 19.1313 28.5811 19.0246 28.7159 18.9188 28.8512 18.813 28.9869 18.7081 29.1226 18.6031 29.2591 18.4986 29.3956 18.3949 29.5326 18.2912 29.6695 18.1879 29.8069 18.0851 29.9452 17.9827 30.083 17.8807 30.2217 17.7792 30.3603 17.6781 30.4994 17.5774 30.6389 17.4771 30.7785 17.3769 30.9188 17.2774 31.0588 17.1785 31.1996 17.0799 31.3404 16.9813 31.482 16.8836 31.6233 16.7863 31.7653 16.6891 31.9074 16.5926 32.0499 16.4962 32.1929 16.4006 32.3358 16.3051 32.4791 16.2103 32.6229 16.1156 32.7667 16.0218 32.9114 15.9279 33.0556 15.8349 33.2006 15.7419 33.3457 15.6497 33.4912 15.5575 33.6371 15.4662 33.783 15.3749 33.9294 15.2845 34.0762 15.194 34.2229 15.1044 34.3701 15.0153 34.5178 14.9261 34.6654 14.8378 34.8134 14.7494 34.9619 14.662 35.1104 14.5749 35.2597 14.4879 35.4086 14.4017 35.5584 14.3159 35.7082 14.2306 35.8579 14.1453 36.0085 14.0608 36.1591 13.9767 36.3102 13.8931 36.4612 13.8099 36.6127 13.7271 36.7642 13.6448 36.9165 13.5629 37.0684 13.4814 37.2211 13.4007 37.3739 13.3201 37.527 13.2399 37.6802 13.1605 37.8338 13.0812 37.9878 13.0027 38.1419 12.9242 38.2963 12.8465 38.4512 12.7693 38.6061 12.6925 38.7614 12.6157 38.9167 12.5397 39.0724 12.4642 39.2286 12.3891 39.3847 12.3149 39.5413 12.2406 39.6979 12.1668 39.8549 12.0939 40.0124 12.0209 40.1698 11.9488 40.3277 11.8771 40.486 11.8054 40.6443 11.7346 40.8026 11.6642 40.9613 11.5942 41.1204 11.5251 41.28 11.456 41.4396 11.3873 41.5991 11.3195 41.7591 11.2521 41.9196 11.1846 42.08 11.1181 42.2409 11.0519 42.4017 10.9862 42.5634 10.9214 42.7247 10.8565 42.8864 10.7925 43.0485 10.7285 43.2107 10.6654 43.3732 10.6027 43.5358 10.5404 43.6988 10.4785 43.8622 10.4171 44.0256 10.3565 44.189 10.2959 44.3529 10.2362 44.5171 10.1769 44.6814 10.118 44.8461 10.0595 45.0108 10.0015 45.1759 9.94432 45.341 9.88715 45.5066 9.83083 45.6725 9.77493 45.8385 9.71947 46.0045 9.66443 46.1709 9.61024 46.3377 9.55648 46.5045 9.50272 46.6714 9.44981 46.8386 9.39733 47.0063 9.34571 47.174 9.29408 47.3421 9.24331 47.5102 9.19296 47.6787 9.14304 47.8473 9.09355 48.0158 9.04448 48.1852 8.99627 48.3541 8.94805 48.5239 8.90069 48.6933 8.85376 48.8631 8.80768 49.0334 8.7616 49.2036 8.71637 49.3743 8.67157 49.545 8.6272 49.7161 8.58368 49.8871 8.54016 50.0582 8.49749 50.2298 8.45525 50.4017 8.41344 50.5737 8.37248 50.746 8.33152 50.9184 8.29141 51.0908 8.25173 51.2636 8.21248 51.4364 8.17408 51.6096 8.13611 51.7833 8.09856 51.9565 8.06144 52.1306 8.02517 52.3042 7.98891 52.4787 7.95349 52.6528 7.91851 52.8273 7.88437 53.0022 7.85067 53.1772 7.81696 53.3521 7.78453 53.5275 7.75211 53.7033 7.72053 53.879 7.68939 54.0548 7.65867 54.2306 7.62837 54.4073 7.59893 54.5835 7.56992 54.7601 7.54133 54.9372 7.5136 55.1138 7.48629 55.2913 7.45941 55.4688 7.43296 55.6463 7.40736 55.8238 7.38219 56.0017 7.35744 56.1801 7.33312 56.3584 7.30965 56.5367 7.28661 56.7155 7.264 56.8943 7.24224 57.0731 7.22091 57.2523 7.2 57.4319 7.17995 57.6111 7.15989 57.7911 7.14112 57.9708 7.12235 58.1508 7.10443 58.3313 7.08693 58.5114 7.06987 58.6923 7.05365 58.8727 7.03787 59.0537 7.02251 59.235 7.008 59.4159 6.99392 59.5977 6.98027 59.779 6.96704 59.9608 6.95467 60.1425 6.94272 60.3247 6.93163 60.5069 6.92096 60.6895 6.91072 60.8721 6.90133 61.0547 6.89237 61.2378 6.88384 61.4208 6.87616 61.6038 6.86891 61.7873 6.86208 61.9708 6.85611 62.1547 6.85056 62.3381 6.84544 62.5225 6.84117 62.7063 6.83733 62.8907 6.83392 63.0754 6.83136 63.2597 6.82923 63.4449 6.82795 63.6297 6.82709 63.8148 6.82667 64 6.82709 64.1852 6.82795 64.3703 6.82923 64.5551 6.83136 64.7403 6.83392 64.9246 6.83733 65.1093 6.84117 65.2937 6.84544 65.4775 6.85056 65.6619 6.85611 65.8453 6.86208 66.0292 6.86891 66.2127 6.87616 66.3962 6.88384 66.5792 6.89237 66.7622 6.90133 66.9453 6.91072 67.1279 6.92096 67.3105 6.93163 67.4931 6.94272 67.6753 6.95467 67.8575 6.96704 68.0393 6.98027 68.221 6.99392 68.4023 7.008 68.5841 7.02251 68.765 7.03787 68.9464 7.05365 69.1273 7.06987 69.3077 7.08693 69.4886 7.10443 69.6687 7.12235 69.8492 7.14112 70.0292 7.15989 70.2089 7.17995 70.3889 7.2 70.5681 7.22091 70.7477 7.24224 70.9269 7.264 71.1057 7.28661 71.2845 7.30965 71.4633 7.33312 71.6416 7.35744 71.8199 7.38219 71.9983 7.40736 72.1762 7.43296 72.3537 7.45941 72.5312 7.48629 72.7087 7.5136 72.8862 7.54133 73.0628 7.56992 73.2399 7.59893 73.4165 7.62837 73.5928 7.65867 73.7694 7.68939 73.9452 7.72053 74.121 7.75211 74.2967 7.78453 74.4725 7.81696 74.6479 7.85067 74.8228 7.88437 74.9978 7.91851 75.1727 7.95349 75.3472 7.98891 75.5213 8.02517 75.6958 8.06144 75.8694 8.09856 76.0435 8.13611 76.2167 8.17408 76.3904 8.21248 76.5636 8.25173 76.7364 8.29141 76.9092 8.33152 77.0816 8.37248 77.254 8.41344 77.4263 8.45525 77.5983 8.49749 77.7702 8.54016 77.9418 8.58368 78.1129 8.6272 78.284 8.67157 78.455 8.71637 78.6257 8.7616 78.7964 8.80768 78.9666 8.85376 79.1369 8.90069 79.3067 8.94805 79.4765 8.99627 79.6459 9.04448 79.8148 9.09355 79.9838 9.14304 80.1527 9.19253 80.3213 9.24331 80.4898 9.29408 80.6579 9.34571 80.826 9.39733 80.9937 9.44981 81.1614 9.50272 81.3286 9.55648 81.4955 9.61024 81.6623 9.66443 81.8291 9.71947 81.9955 9.77493 82.1615 9.83083 82.3275 9.88715 82.4934 9.94432 82.659 10.0015 82.8241 10.0595 82.9892 10.118 83.1539 10.1769 83.3186 10.2362 83.4829 10.2959 83.6471 10.3565 83.811 10.4171 83.9744 10.4785 84.1378 10.5404 84.3012 10.6027 84.4642 10.6654 84.6268 10.7285 84.7893 10.7925 84.9515 10.8565 85.1136 10.9214 85.2753 10.9862 85.437 11.0519 85.5979 11.1181 85.7591 11.1846 85.92 11.2521 86.0804 11.3195 86.2409 11.3877 86.4009 11.456 86.5604 11.5251 86.72 11.5942 86.8796 11.6642 87.0387 11.7346 87.1974 11.8054 87.3557 11.8771 87.514 11.9488 87.6723 12.0209 87.8302 12.0939 87.9876 12.1668 88.1451 12.2406 88.3021 12.3149 88.4587 12.3891 88.6153 12.4642 88.7714 12.5397 88.9276 12.6157 89.0833 12.6925 89.2386 12.7693 89.3939 12.8465 89.5488 12.9242 89.7037 13.0027 89.8581 13.0812 90.0122 13.1605 90.1662 13.2399 90.3198 13.3201 90.473 13.4007 90.6261 13.4814 90.7789 13.5629 90.9312 13.6448 91.0835 13.7271 91.2358 13.8099 91.3873 13.8931 91.5388 13.9767 91.6902 14.0608 91.8409 14.1453 91.9915 14.2306 92.1421 14.3159 92.2918 14.4017 92.4416 14.4879 92.5914 14.5749 92.7403 14.662 92.8892 14.7494 93.0381 14.8378 93.1866 14.9261 93.3346 15.0153 93.4822 15.1044 93.6299 15.194 93.7771 15.2845 93.9238 15.3749 94.0706 15.4662 94.217 15.5575 94.3629 15.6497 94.5088 15.7419 94.6543 15.8349 94.7994 15.9279 94.9444 16.0218 95.0886 16.1156 95.2333 16.2103 95.3771 16.3051 95.5209 16.4006 95.6642 16.4962 95.8072 16.5926 95.9501 16.6891 96.0926 16.7863 96.2347 16.8836 96.3767 16.9813 96.518 17.0799 96.6592 17.1785 96.8004 17.2774 96.9412 17.3769 97.0812 17.4771 97.2215 17.5774 97.3611 17.6781 97.5006 17.7792 97.6397 17.8807 97.7784 17.9827 97.917 18.0851 98.0548 18.1879 98.1931 18.2912 98.3305 18.3949 98.4674 18.4986 98.6044 18.6031 98.7409 18.7081 98.8774 18.813 99.0131 18.9188 99.1488 19.0246 99.2841 19.1313 99.4189 19.238 99.5537 19.3451 99.6877 19.4526 99.8217 19.5605 99.9556 19.6689 100.089 19.7777 100.222 19.8869 100.355 19.9966 100.487 20.1062 100.619 20.2167 100.751 20.3277 100.881 20.4386 101.012 20.55 101.143 20.6618 101.274 20.7744 101.404 20.887 101.533 20.9997 101.662 21.1132 101.792 21.2271 101.92 21.341 102.048 21.4558 102.176 21.5706 102.304 21.6862 102.431 21.8018 102.558 21.9179 102.685 22.0339 102.81 22.1508 102.936 22.2682 103.062 22.3855 103.187 22.5037 103.312 22.6219 103.436 22.7405 103.56 22.8595 103.684 22.979 103.808 23.0985 103.93 23.2188 104.053 23.3391 104.175 23.4598 104.297 23.581 104.419 23.7026 104.54 23.8246 104.661 23.9471 104.781 24.0695 104.902 24.1929 105.021 24.3162 105.14 24.4399 105.26 24.5636 105.378 24.6882 105.496 24.8128 105.615 24.9382 105.732 25.0637 105.849 25.1895 105.966 25.3154 106.082 25.4421 106.198 25.5689 106.314 25.6964 106.429 25.824 106.544 25.9516 106.659 26.08 106.773 26.2084 106.887 26.3377 107 26.467 107.113 26.5963 107.226 26.7264 107.338 26.8565 107.45 26.9875 107.561 27.1185 107.673 27.2495 107.783 27.3813 107.894 27.5132 108.003 27.6454 108.113 27.7781 108.222 27.9113 108.331 28.0444 108.439 28.1783 108.547 28.3119 108.655 28.4463 108.762 28.5811 108.869 28.7159 108.975 28.8512 109.081 28.9869 109.187 29.1226 109.292 29.2591 109.397 29.3956 109.501 29.5326 109.605 29.6695 109.709 29.8074 109.812 29.9447 109.915 30.083 110.017 30.2217 110.119 30.3603 110.221 30.4994 110.322 30.6389 110.423 30.7785 110.523 30.9184 110.623 31.0588 110.723 31.1996 110.822 31.3408 110.92 31.482 111.019 31.6233 111.116 31.7653 111.214 31.9074 111.311 32.0499 111.407 32.1929 111.504 32.3358 111.599 32.4791 111.695 32.6229 111.79 32.7667 111.884 32.9109 111.978 33.0556 112.072 33.2006 112.165 33.3457 112.258 33.4912 112.35 33.6371 112.442 33.783 112.534 33.9294 112.625 34.0762 112.716 34.2229 112.806 34.3701 112.896 34.5178 112.985 34.6658 113.074 34.8139 113.162 34.9619 113.251 35.1104 113.338 35.2597 113.425 35.4086 113.512 35.558 113.598 35.7082 113.684 35.8583 113.77 36.0085 113.855 36.1591 113.939 36.3102 114.023 36.4612 114.107 36.6127 114.19 36.7646 114.273 36.9165 114.355 37.0684 114.437 37.2211 114.518 37.3739 114.599 37.527 114.68 37.6802 114.76 37.8338 114.839 37.9878 114.919 38.1419 114.997 38.2963 115.076 38.4512 115.153 38.6061 115.231 38.7614 115.308 38.9167 115.384 39.0724 115.46 39.2286 115.536 39.3847 115.61 39.5413 115.685 39.6983 115.759 39.8549 115.833 40.0124 115.906 40.1702 115.979 40.3277 116.051 40.4855 116.123 40.6443 116.195 40.8026 116.265 40.9617 116.336 41.1204 116.405 41.2796 116.475 41.4396 116.544 41.5991 116.613 41.7591 116.681 41.9196 116.748 42.08 116.815 42.2409 116.882 42.4021 116.948 42.563 117.013 42.7247 117.079 42.8864 117.143 43.0485 117.207 43.2107 117.271 43.3732 117.335 43.5362 117.397 43.6988 117.46 43.8618 117.521 44.0256 117.583 44.189 117.644 44.3529 117.704 44.5171 117.764 44.6814 117.823 44.8461 117.882 45.0112 117.94 45.1759 117.999 45.341 118.056 45.5066 118.113 45.6725 118.169 45.8385 118.225 46.0045 118.281 46.1709 118.336 46.3377 118.39 46.5045 118.444 46.6714 118.497 46.839 118.55 47.0063 118.603 47.174 118.654 47.3421 118.706 47.5102 118.757 47.6787 118.807 47.8473 118.857 48.0158 118.906 48.1847 118.956 48.3546 119.004 48.5239 119.052 48.6933 119.099 48.8631 119.146 49.0334 119.192 49.2036 119.238 49.3743 119.284 49.545 119.328 49.7161 119.373 49.8871 119.416 50.0582 119.46 50.2298 119.503 50.4017 119.545 50.5737 119.587 50.7456 119.628 50.9184 119.668 51.0908 119.709 51.2636 119.748 51.4368 119.788 51.6096 119.826 51.7828 119.864 51.9565 119.901 52.1306 119.939 52.3046 119.975 52.4787 120.011 52.6528 120.047 52.8273 120.081 53.0022 120.116 53.1772 120.149 53.3521 120.183 53.5275 120.215 53.7033 120.248 53.879 120.279 54.0548 120.311 54.231 120.341 54.4073 120.372 54.5835 120.401 54.7601 120.43 54.9372 120.459 55.1138 120.486 55.2913 120.514 55.4688 120.541 55.6459 120.567 55.8238 120.593 56.0021 120.618 56.1801 120.643 56.3584 120.667 56.5367 120.69 56.7151 120.713 56.8943 120.736 57.0731 120.758 57.2523 120.779 57.4319 120.8 57.6111 120.82 57.7907 120.84 57.9708 120.859 58.1508 120.878 58.3313 120.896 58.5114 120.913 58.6918 120.93 58.8727 120.946 59.0537 120.962 59.2346 120.977 59.4159 120.992 59.5977 121.006 59.779 121.02 59.9608 121.033 60.1429 121.045 60.3251 121.057 60.5069 121.068 60.6895 121.079 60.8721 121.089 61.0547 121.099 61.2378 121.108 61.4208 121.116 61.6038 121.124 61.7873 121.131 61.9708 121.138 62.1547 121.144 62.3381 121.149 62.522 121.155 62.7063 121.159 62.8907 121.163 63.0754 121.166 63.2597 121.169 63.4445 121.171 63.6297 121.172 63.8148 121.173 64 121.173 64.1852 121.173 64.3703 121.172 64.5555 121.171 64.7403 121.169 64.9246 121.166 65.1093 121.163 65.2937 121.159 65.478 121.155 65.6619 121.149 65.8453 121.144 66.0292 121.138 66.2127 121.131 66.3962 121.124 66.5792 121.116 66.7622 121.108 66.9453 121.099 67.1279 121.089 67.3105 121.079 67.4931 121.068 67.6749 121.057 67.8571 121.045 68.0393 121.033 68.221 121.02 68.4023 121.006 68.5841 120.992 68.7654 120.977 68.9464 120.962 69.1273 120.946 69.3082 120.93 69.4886 120.913 69.6687 120.896 69.8492 120.878 70.0292 120.859 70.2093 120.84 70.3889 120.82 70.5681 120.8 70.7477 120.779 70.9269 120.758 71.1057 120.736 71.2849 120.713 71.4633 120.69 71.6416 120.667 71.8199 120.643 71.9979 120.618 72.1762 120.593 72.3541 120.567 72.5312 120.541 72.7087 120.514 72.8862 120.486 73.0628 120.459 73.2399 120.43 73.4165 120.401 73.5928 120.372 73.769 120.341 73.9452 120.311 74.121 120.279 74.2967 120.248 74.4725 120.215 74.6479 120.183 74.8228 120.149 74.9978 120.116 75.1727 120.081 75.3472 120.047 75.5213 120.011 75.6954 119.975 75.8694 119.939 76.0435 119.901 76.2172 119.864 76.3904 119.826 76.5632 119.788 76.7364 119.748 76.9092 119.709 77.0816 119.668 77.2544 119.628 77.4263 119.587 77.5983 119.545 77.7702 119.503 77.9418 119.46 78.1129 119.416 78.284 119.373 78.455 119.328 78.6257 119.284 78.7964 119.238 78.9666 119.192 79.1369 119.146 79.3067 119.099 79.4761 119.052 79.6454 119.004 79.8153 118.956 79.9838 118.906 80.1527 118.857 80.3213 118.807 80.4898 118.757 80.6579 118.706 80.826 118.654 80.9937 118.603 81.161 118.55 81.3286 118.497 81.4955 118.444 81.6623 118.39 81.8291 118.336 81.9955 118.281 82.1615 118.225 82.3275 118.169 82.4934 118.113 82.659 118.056 82.8241 117.999 82.9888 117.94 83.1539 117.882 83.3186 117.823 83.4829 117.764 83.6471 117.704 83.811 117.644 83.9744 117.583 84.1382 117.521 84.3012 117.46 84.4638 117.397 84.6268 117.335 84.7893 117.271 84.9515 117.207 85.1136 117.143 85.2753 117.079 85.437 117.013 85.5979 116.948 85.7591 116.882 85.92 116.815 86.0804 116.748 86.2409 116.681 86.4009 116.613 86.5604 116.544 86.72 116.475 86.8796 116.405 87.0387 116.336 87.1974 116.265 87.3557 116.195 87.5145 116.123 87.6723 116.051 87.8302 115.979 87.9876 115.906 88.1451 115.833 88.3017 115.759 88.4587 115.685 88.6153 115.61 88.7714 115.536 88.9276 115.46 89.0833 115.384 89.2386 115.308 89.3939 115.231 89.5488 115.153 89.7037 115.076 89.8581 114.997 90.0122 114.919 90.1662 114.839 90.3198 114.76 90.473 114.68 90.6261 114.599 90.7789 114.518 90.9312 114.437 91.0835 114.355 91.2354 114.273 91.3873 114.19 91.5388 114.107 91.6898 114.023 91.8409 113.939 91.9915 113.855 92.1417 113.769 92.2918 113.684 92.442 113.598 92.5914 113.512 92.7403 113.425 92.8896 113.338 93.0381 113.251 93.1866 113.162 93.3342 113.074 93.4822 112.985 93.6299 112.896 93.7771 112.806 93.9238 112.716 94.0706 112.625 94.217 112.534 94.3629 112.442 94.5088 112.35 94.6543 112.258 94.7994 112.165 94.9444 112.072 95.0891 111.978 95.2333 111.884 95.3771 111.79 95.5209 111.695 95.6642 111.599 95.8072 111.504 95.9501 111.407 96.0926 111.311 96.2347 111.214 96.3767 111.116 96.518 111.019 96.6592 110.92 96.8004 110.822 96.9412 110.723 97.0812 110.623 97.2215 110.523 97.3611 110.423 97.5006 110.322 97.6397 110.221 97.7784 110.119 97.917 110.017 98.0553 109.915 98.1926 109.812 98.3305 109.709 98.4674 109.605 98.6044 109.501 98.7409 109.397 98.8774 109.292 99.0131 109.187 99.1488 109.081 99.2841 108.975 99.4189 108.869 99.5537 108.762 99.6881 108.655 99.8217 108.547 99.9556 108.439 100.089 108.331 100.222 108.222 100.355 108.113 100.487 108.003 100.619 107.894 100.751 107.783 100.881 107.673 101.012 107.561 101.143 107.45 101.274 107.338 101.404 107.226 101.533 107.113 101.662 107 101.792 106.887 101.92 106.773 102.048 106.659 102.176 106.544 102.304 106.429 102.431 106.314 102.558 106.198 102.685 106.082 102.81 105.966 102.936 105.849 103.062 105.732 103.187 105.615 103.312 105.496 103.436 105.378 103.56 105.26 103.684 105.14 103.807 105.021 103.93 104.902 104.053 104.781 104.175 104.661 104.297 104.54 104.419 104.419 104.54 104.297 104.661 104.175 104.781 104.053 104.902 103.93 105.021 103.807 105.14 103.684 105.26 103.56 105.378 103.436 105.496 103.312 105.615 103.187 105.732 103.062 105.849 102.936 105.966 102.81 106.082 102.685 106.198 102.558 106.314 102.431 106.429 102.304 106.544 102.176 106.659 102.048 106.773 101.92 106.887 101.792 107 101.662 107.113 101.533 107.226 101.404 107.338 101.274 107.45 101.143 107.561 101.012 107.673 100.881 107.783 100.751 107.894 100.619 108.003 100.487 108.113 100.355 108.222 100.222 108.331 100.089 108.439 99.9556 108.547 99.8217 108.655 99.6881 108.762 99.5537 108.869 99.4189 108.975 99.2841 109.081 99.1488 109.187 99.0131 109.292 98.8774 109.397 98.7409 109.501 98.6044 109.605 98.4674 109.709 98.3305 109.812 98.1926 109.915 98.0553 110.017 97.917 110.119 97.7784 110.221 97.6397 110.322 97.5006 110.423 97.3611 110.523 97.2215 110.623 97.0812 110.723 96.9412 110.822 96.8004 110.92 96.6592 111.019 96.518 111.116 96.3767 111.214 96.2347 111.311 96.0926 111.407 95.9501 111.504 95.8072 111.599 95.6642 111.695 95.5209 111.79 95.3771 111.884 95.2333 111.978 95.0891 112.072 94.9444 112.165 94.7994 112.258 94.6543 112.35 94.5088 112.442 94.3629 112.534 94.217 112.625 94.0706 112.716 93.9238 112.806 93.7771 112.896 93.6299 112.985 93.4822 113.074 93.3342 113.162 93.1866 113.251 93.0381 113.338 92.8896 113.425 92.7403 113.512 92.5914 113.598 92.442 113.684 92.2918 113.769 92.1417 113.855 91.9915 113.939 91.8409 114.023 91.6898 114.107 91.5388 114.19 91.3873 114.273 91.2354 114.355 91.0835 114.437 90.9312 114.518 90.7789 114.599 90.6261 114.68 90.473 114.76 90.3198 114.839 90.1662 114.919 90.0122 114.997 89.8581 115.076 89.7037 115.153 89.5488 115.231 89.3939 115.308 89.2386 115.384 89.0833 115.46 88.9276 115.536 88.7714 115.61 88.6153 115.685 88.4587 115.759 88.3017 115.833 88.1451 115.906 87.9876 115.979 87.8302 116.051 87.6723 116.123 87.5145 116.195 87.3557 116.265 87.1974 116.336 87.0387 116.405 86.8796 116.475 86.72 116.544 86.5604 116.613 86.4009 116.681 86.2409 116.748 86.0804 116.815 85.92 116.882 85.7591 116.948 85.5979 117.013 85.437 117.079 85.2753 117.143 85.1136 117.207 84.9515 117.271 84.7893 117.335 84.6268 117.397 84.4638 117.46 84.3012 117.521 84.1382 117.583 83.9744 117.644 83.811 117.704 83.6471 117.764 83.4829 117.823 83.3186 117.882 83.1539 117.94 82.9888 117.999 82.8241 118.056 82.659 118.113 82.4934 118.169 82.3275 118.225 82.1615 118.281 81.9955 118.336 81.8291 118.39 81.6623 118.444 81.4955 118.497 81.3286 118.55 81.161 118.603 80.9937 118.654 80.826 118.706 80.6579 118.757 80.4898 118.807 80.3213 118.857 80.1527 118.906 79.9838 118.956 79.8153 119.004 79.6454 119.052 79.4761 119.099 79.3067 119.146 79.1369 119.192 78.9666 119.238 78.7964 119.284 78.6257 119.328 78.455 119.373 78.284 119.416 78.1129 119.46 77.9418 119.503 77.7702 119.545 77.5983 119.587 77.4263 119.628 77.2544 119.668 77.0816 119.709 76.9092 119.748 76.7364 119.788 76.5632 119.826 76.3904 119.864 76.2172 119.901 76.0435 119.939 75.8694 119.975 75.6954 120.011 75.5213 120.047 75.3472 120.081 75.1727 120.116 74.9978 120.149 74.8228 120.183 74.6479 120.215 74.4725 120.248 74.2967 120.279 74.121 120.311 73.9452 120.341 73.769 120.372 73.5928 120.401 73.4165 120.43 73.2399 120.459 73.0628 120.486 72.8862 120.514 72.7087 120.541 72.5312 120.567 72.3541 120.593 72.1762 120.618 71.9979 120.643 71.8199 120.667 71.6416 120.69 71.4633 120.713 71.2849 120.736 71.1057 120.758 70.9269 120.779 70.7477 120.8 70.5681 120.82 70.3889 120.84 70.2093 120.859 70.0292 120.878 69.8492 120.896 69.6687 120.913 69.4886 120.93 69.3082 120.946 69.1273 120.962 68.9464 120.977 68.7654 120.992 68.5841 121.006 68.4023 121.02 68.221 121.033 68.0393 121.045 67.8571 121.057 67.6749 121.068 67.4931 121.079 67.3105 121.089 67.1279 121.099 66.9453 121.108 66.7622 121.116 66.5792 121.124 66.3962 121.131 66.2127 121.138 66.0292 121.144 65.8453 121.149 65.6619 121.155 65.478 121.159 65.2937 121.163 65.1093 121.166 64.9246 121.169 64.7403 121.171 64.5555 121.172 64.3703 121.173 64.1852 121.173 64 121.173 63.8148 121.172 63.6297 121.171 63.4445 121.169 63.2597 121.166 63.0754 121.163 62.8907 121.159 62.7063 121.155 62.522 121.149 62.3381 121.144 62.1547 121.138 61.9708 121.131 61.7873 121.124 61.6038 121.116 61.4208 121.108 61.2378 121.099 61.0547 121.089 60.8721 121.079 60.6895 121.068 60.5069 121.057 60.3251 121.045 60.1429 121.033 59.9608 121.02 59.779 121.006 59.5977 120.992 59.4159 120.977 59.2346 120.962 59.0537 120.946 58.8727 120.93 58.6918 120.913 58.5114 120.896 58.3313 120.878 58.1508 120.859 57.9708 120.84 57.7907 120.82 57.6111 120.8 57.4319 120.779 57.2523 120.758 57.0731 120.736 56.8943 120.713 56.7151 120.69 56.5367 120.667 56.3584 120.643 56.1801 120.618 56.0021 120.593 55.8238 120.567 55.6459 120.541 55.4688 120.514 55.2913 120.486 55.1138 120.459 54.9372 120.43 54.7601 120.401 54.5835 120.372 54.4073 120.341 54.231 120.311 54.0548 120.279 53.879 120.248 53.7033 120.215 53.5275 120.183 53.3521 120.149 53.1772 120.116 53.0022 120.081 52.8273 120.047 52.6528 120.011 52.4787 119.975 52.3046 119.939 52.1306 119.901 51.9565 119.864 51.7828 119.826 51.6096 119.788 51.4368 119.748 51.2636 119.709 51.0908 119.668 50.9184 119.628 50.7456 119.587 50.5737 119.545 50.4017 119.503 50.2298 119.46 50.0582 119.416 49.8871 119.373 49.7161 119.328 49.545 119.284 49.3743 119.238 49.2036 119.192 49.0334 119.146 48.8631 119.099 48.6933 119.052 48.5239 119.004 48.3546 118.956 48.1847 118.906 48.0158 118.857 47.8473 118.807 47.6787 118.757 47.5102 118.706 47.3421 118.654 47.174 118.603 47.0063 118.55 46.839 118.497 46.6714 118.444 46.5045 118.39 46.3377 118.336 46.1709 118.281 46.0045 118.225 45.8385 118.169 45.6725 118.113 45.5066 118.056 45.341 117.999 45.1759 117.94 45.0112 117.882 44.8461 117.823 44.6814 117.764 44.5171 117.704 44.3529 117.644 44.189 117.583 44.0256 117.521 43.8618 117.46 43.6988 117.397 43.5362 117.335 43.3732 117.271 43.2107 117.207 43.0485 117.143 42.8864 117.079 42.7247 117.013 42.563 116.948 42.4021 116.882 42.2409 116.815 42.08 116.748 41.9196 116.681 41.7591 116.613 41.5991 116.544 41.4396 116.475 41.2796 116.405 41.1204 116.336 40.9617 116.265 40.8026 116.195 40.6443 116.123 40.4855 116.051 40.3277 115.979 40.1702 115.906 40.0124 115.833 39.8549 115.759 39.6983 115.685 39.5413 115.61 39.3847 115.536 39.2286 115.46 39.0724 115.384 38.9167 115.308 38.7614 115.231 38.6061 115.153 38.4512 115.076 38.2963 114.997 38.1419 114.919 37.9878 114.839 37.8338 114.76 37.6802 114.68 37.527 114.599 37.3739 114.518 37.2211 114.437 37.0684 114.355 36.9165 114.273 36.7646 114.19 36.6127 114.107 36.4612 114.023 36.3102 113.939 36.1591 113.855 36.0085 113.77 35.8583 113.684 35.7082 113.598 35.558 113.512 35.4086 113.425 35.2597 113.338 35.1104 113.251 34.9619 113.162 34.8139 113.074 34.6658 112.985 34.5178 112.896 34.3701 112.806 34.2229 112.716 34.0762 112.625 33.9294 112.534 33.783 112.442 33.6371 112.35 33.4912 112.258 33.3457 112.165 33.2006 112.072 33.0556 111.978 32.9109 111.884 32.7667 111.79 32.6229 111.695 32.4791 111.599 32.3358 111.504 32.1929 111.407 32.0499 111.311 31.9074 111.214 31.7653 111.116 31.6233 111.019 31.482 110.92 31.3408 110.822 31.1996 110.723 31.0588 110.623 30.9184 110.523 30.7785 110.423 30.6389 110.322 30.4994 110.221 30.3603 110.119 30.2217 110.017 30.083 109.915 29.9447 109.812 29.8074 109.709 29.6695 109.605 29.5326 109.501 29.3956 109.397 29.2591 109.292 29.1226 109.187 28.9869 109.081 28.8512 108.975 28.7159 108.869 28.5811 108.762 28.4463 108.655 28.3119 108.547 28.1783 108.439 28.0444 108.331 27.9113 108.222 27.7781 108.113 27.6454 108.003 27.5132 107.894 27.3813 107.783 27.2495 107.673 27.1185 107.561 26.9875 107.45 26.8565 107.338 26.7264 107.226 26.5963 107.113 26.467 107 26.3377 106.887 26.2084 106.773 26.08 106.659 25.9516 106.544 25.824 106.429 25.6964 106.314 25.5689 106.198 25.4421 106.082 25.3154 105.966 25.1895 105.849 25.0637 105.732 24.9382 105.615 24.8128 105.496 24.6882 105.378 24.5636 105.26 24.4399 105.14 24.3162 105.021 24.1929 104.902 24.0695 104.781 23.9471 104.661 23.8246 104.54 23.7026 104.419 23.581 104.297 23.4598 104.175 23.3391 104.053 23.2188 103.93 23.0985 103.808 22.979 103.684 22.8595 103.56 22.7405 103.436 22.6219 103.312 22.5037 103.187 22.3855 103.062 22.2682 102.936 22.1508 102.81 22.0339 102.685 21.9179 102.558 21.8018 102.431 21.6862 102.304 21.5706 102.176 21.4558 102.048 21.341 101.92 21.2271 101.792 21.1132 101.662 20.9997 101.533 20.887 101.404 20.7744 101.274 20.6618 101.143 20.55 101.012 20.4386 100.881 20.3277 100.751 20.2167 100.619 20.1062 100.487 19.9966 100.355 19.8869 100.222 19.7777 100.089 19.6689 99.9556 19.5605 99.8217 19.4526 99.6877 19.3451 99.5537 19.238 99.4189 19.1313 99.2841 19.0246 99.1488 18.9188 99.0131 18.813 98.8774 18.7081 98.7409 18.6031 98.6044 18.4986 98.4674 18.3949 98.3305 18.2912 98.1931 18.1879 98.0548 18.0851 97.917 17.9827 97.7784 17.8807 97.6397 17.7792 97.5006 17.6781 97.3611 17.5774 97.2215 17.4771 97.0812 17.3769 96.9412 17.2774 96.8004 17.1785 96.6592 17.0799 96.518 16.9813 96.3767 16.8836 96.2347 16.7863 96.0926 16.6891 95.9501 16.5926 95.8072 16.4962 95.6642 16.4006 95.5209 16.3051 95.3771 16.2103 95.2333 16.1156 95.0886 16.0218 94.9444 15.9279 94.7994 15.8349 94.6543 15.7419 94.5088 15.6497 94.3629 15.5575 94.217 15.4662 94.0706 15.3749 93.9238 15.2845 93.7771 15.194 93.6299 15.1044 93.4822 15.0153 93.3346 14.9261 93.1866 14.8378 93.0381 14.7494 92.8892 14.662 92.7403 14.5749 92.5914 14.4879 92.4416 14.4017 92.2918 14.3159 92.1421 14.2306 91.9915 14.1453 91.8409 14.0608 91.6902 13.9767 91.5388 13.8931 91.3873 13.8099 91.2358 13.7271 91.0835 13.6448 90.9312 13.5629 90.7789 13.4814 90.6261 13.4007 90.473 13.3201 90.3198 13.2399 90.1662 13.1605 90.0122 13.0812 89.8581 13.0027 89.7037 12.9242 89.5488 12.8465 89.3939 12.7693 89.2386 12.6925 89.0833 12.6157 88.9276 12.5397 88.7714 12.4642 88.6153 12.3891 88.4587 12.3149 88.3021 12.2406 88.1451 12.1668 87.9876 12.0939 87.8302 12.0209 87.6723 11.9488 87.514 11.8771 87.3557 11.8054 87.1974 11.7346 87.0387 11.6642 86.8796 11.5942 86.72 11.5251 86.5604 11.456 86.4009 11.3877 86.2409 11.3195 86.0804 11.2521 85.92 11.1846 85.7591 11.1181 85.5979 11.0519 85.437 10.9862 85.2753 10.9214 85.1136 10.8565 84.9515 10.7925 84.7893 10.7285 84.6268 10.6654 84.4642 10.6027 84.3012 10.5404 84.1378 10.4785 83.9744 10.4171 83.811 10.3565 83.6471 10.2959 83.4829 10.2362 83.3186 10.1769 83.1539 10.118 82.9892 10.0595 82.8241 10.0015 82.659 9.94432 82.4934 9.88715 82.3275 9.83083 82.1615 9.77493 81.9955 9.71947 81.8291 9.66443 81.6623 9.61024 81.4955 9.55648 81.3286 9.50272 81.1614 9.44981 80.9937 9.39733 80.826 9.34571 80.6579 9.29408 80.4898 9.24331 80.3213 9.19253 80.1527 9.14304 79.9838 9.09355 79.8148 9.04448 79.6459 8.99627 79.4765 8.94805 79.3067 8.90069 79.1369 8.85376 78.9666 8.80768 78.7964 8.7616 78.6257 8.71637 78.455 8.67157 78.284 8.6272 78.1129 8.58368 77.9418 8.54016 77.7702 8.49749 77.5983 8.45525 77.4263 8.41344 77.254 8.37248 77.0816 8.33152 76.9092 8.29141 76.7364 8.25173 76.5636 8.21248 76.3904 8.17408 76.2167 8.13611 76.0435 8.09856 75.8694 8.06144 75.6958 8.02517 75.5213 7.98891 75.3472 7.95349 75.1727 7.91851 74.9978 7.88437 74.8228 7.85067 74.6479 7.81696 74.4725 7.78453 74.2967 7.75211 74.121 7.72053 73.9452 7.68939 73.7694 7.65867 73.5928 7.62837 73.4165 7.59893 73.2399 7.56992 73.0628 7.54133 72.8862 7.5136 72.7087 7.48629 72.5312 7.45941 72.3537 7.43296 72.1762 7.40736 71.9983 7.38219 71.8199 7.35744 71.6416 7.33312 71.4633 7.30965 71.2845 7.28661 71.1057 7.264 70.9269 7.24224 70.7477 7.22091 70.5681 7.2 70.3889 7.17995 70.2089 7.15989 70.0292 7.14112 69.8492 7.12235 69.6687 7.10443 69.4886 7.08693 69.3077 7.06987 69.1273 7.05365 68.9464 7.03787 68.765 7.02251 68.5841 7.008 68.4023 6.99392 68.221 6.98027 68.0393 6.96704 67.8575 6.95467 67.6753 6.94272 67.4931 6.93163 67.3105 6.92096 67.1279 6.91072 66.9453 6.90133 66.7622 6.89237 66.5792 6.88384 66.3962 6.87616 66.2127 6.86891 66.0292 6.86208 65.8453 6.85611 65.6619 6.85056 65.4775 6.84544 65.2937 6.84117 65.1093 6.83733 64.9246 6.83392 64.7403 6.83136 64.5551 6.82923 64.3703 6.82795 64.1852 6.82709 64 6.82667 63.8148 6.82709Z" fill="#2D67B9" fill-rule="evenodd"/><path d="M63.9994 26.6293C64.6552 26.6283 65.311 26.8781 65.8106 27.3776 65.8404 27.4063 65.868 27.4361 65.8946 27.4659L101.683 63.2533C102.681 64.2525 102.681 65.8735 101.683 66.8716 100.684 67.8707 99.0629 67.8707 98.0637 66.8716L63.9994 32.8072 29.935 66.8716C28.9369 67.8707 27.3159 67.8707 26.3167 66.8716 25.3186 65.8735 25.3186 64.2525 26.3167 63.2533L62.1041 27.4659C62.1317 27.4361 62.1594 27.4063 62.1881 27.3776 62.6887 26.8781 63.3435 26.6283 63.9994 26.6293Z" fill="#4B4B4B" fill-rule="evenodd"/><path d="M64.0302 26.6293 64.061 26.6293 64.0918 26.6304 64.1227 26.6315 64.1535 26.6336 64.1843 26.6357 64.2151 26.6378 64.2449 26.64 64.2757 26.6432 64.3065 26.6474 64.3374 26.6506 64.3671 26.6548 64.398 26.6591 64.4288 26.6644 64.4585 26.6697 64.4894 26.675 64.5191 26.6814 64.5499 26.6878 64.5797 26.6942 64.6095 26.7016 64.6403 26.709 64.6701 26.7165 64.6998 26.725 64.7296 26.7335 64.7594 26.7431 64.788 26.7516 64.8178 26.7622 64.8476 26.7718 64.8763 26.7824 64.906 26.793 64.9347 26.8036 64.9634 26.8153 64.9932 26.827 65.0219 26.8398 65.0506 26.8525 65.0782 26.8653 65.1069 26.8791 65.1356 26.8929 65.1633 26.9068 65.1909 26.9206 65.2196 26.9355 65.2472 26.9514 65.2738 26.9663 65.3015 26.9822 65.3291 26.9992 65.3557 27.0152 65.3822 27.0322 65.4099 27.0503 65.4365 27.0673 65.462 27.0853 65.4885 27.1045 65.5141 27.1225 65.5406 27.1417 65.5661 27.1619 65.5917 27.1821 65.6172 27.2023 65.6416 27.2225 65.6661 27.2437 65.6916 27.265 65.716 27.2873 65.7394 27.3086 65.7638 27.3319 65.7872 27.3543 65.8106 27.3776 65.8329 27.3989 65.8542 27.4212 65.8744 27.4436 65.8946 27.4659 101.683 63.2533 101.705 63.2767 101.729 63.3011 101.751 63.3245 101.773 63.3489 101.795 63.3734 101.816 63.3979 101.837 63.4223 101.858 63.4478 101.879 63.4733 101.899 63.4978 101.918 63.5243 101.937 63.5498 101.956 63.5754 101.974 63.6019 101.992 63.6285 102.01 63.6551 102.027 63.6816 102.044 63.7082 102.061 63.7348 102.077 63.7624 102.093 63.7901 102.109 63.8166 102.124 63.8443 102.139 63.873 102.154 63.9006 102.168 63.9283 102.182 63.957 102.194 63.9846 102.207 64.0133 102.22 64.042 102.233 64.0707 102.244 64.0994 102.256 64.1281 102.267 64.1579 102.277 64.1865 102.288 64.2163 102.299 64.245 102.308 64.2748 102.318 64.3045 102.326 64.3343 102.335 64.3641 102.343 64.3938 102.351 64.4236 102.358 64.4534 102.365 64.4831 102.372 64.5139 102.378 64.5437 102.385 64.5735 102.39 64.6043 102.395 64.6341 102.401 64.6649 102.405 64.6957 102.409 64.7255 102.413 64.7563 102.416 64.7871 102.42 64.8169 102.423 64.8477 102.425 64.8785 102.427 64.9094 102.428 64.9402 102.43 64.971 102.43 65.0008 102.431 65.0316 102.431 65.0624 102.431 65.0933 102.43 65.1241 102.43 65.1549 102.428 65.1857 102.427 65.2166 102.425 65.2463 102.423 65.2771 102.42 65.308 102.416 65.3388 102.413 65.3686 102.409 65.3994 102.405 65.4302 102.401 65.46 102.395 65.4908 102.39 65.5216 102.385 65.5514 102.378 65.5812 102.372 65.612 102.365 65.6417 102.358 65.6715 102.351 65.7023 102.343 65.7321 102.335 65.7618 102.326 65.7916 102.318 65.8214 102.308 65.8501 102.299 65.8798 102.288 65.9096 102.277 65.9383 102.267 65.9681 102.256 65.9968 102.244 66.0255 102.233 66.0542 102.22 66.0829 102.207 66.1115 102.194 66.1403 102.182 66.169 102.168 66.1966 102.154 66.2242 102.139 66.2529 102.124 66.2806 102.109 66.3082 102.093 66.3358 102.077 66.3624 102.061 66.39 102.044 66.4166 102.027 66.4443 102.01 66.4708 101.992 66.4974 101.974 66.524 101.956 66.5495 101.937 66.5761 101.918 66.6016 101.899 66.6271 101.879 66.6526 101.858 66.6781 101.837 66.7026 101.816 66.727 101.795 66.7525 101.773 66.7759 101.751 66.8003 101.729 66.8248 101.705 66.8482 101.683 66.8716 101.659 66.895 101.635 66.9183 101.612 66.9407 101.587 66.963 101.563 66.9842 101.539 67.0055 101.513 67.0268 101.489 67.047 101.463 67.0671 101.438 67.0873 101.412 67.1075 101.387 67.1267 101.36 67.1447 101.334 67.1639 101.308 67.182 101.281 67.199 101.255 67.217 101.228 67.234 101.2 67.25 101.174 67.267 101.146 67.2829 101.119 67.2978 101.091 67.3137 101.063 67.3286 101.036 67.3425 101.007 67.3563 100.979 67.3701 100.951 67.3839 100.922 67.3967 100.894 67.4094 100.866 67.4211 100.836 67.4339 100.807 67.4445 100.778 67.4562 100.75 67.4668 100.72 67.4775 100.69 67.487 100.662 67.4976 100.632 67.5061 100.602 67.5157 100.572 67.5242 100.543 67.5327 100.513 67.5402 100.483 67.5476 100.452 67.555 100.422 67.5614 100.393 67.5678 100.362 67.5742 100.332 67.5795 100.301 67.5848 100.271 67.5901 100.241 67.5944 100.21 67.5986 100.18 67.6029 100.149 67.6061 100.118 67.6092 100.089 67.6114 100.058 67.6146 100.027 67.6156 99.9962 67.6178 99.9653 67.6188 99.9345 67.6199 99.9037 67.6209 99.8739 67.6209 99.8431 67.6209 99.8123 67.6199 99.7814 67.6188 99.7506 67.6178 99.7198 67.6156 99.689 67.6146 99.6592 67.6114 99.6284 67.6092 99.5975 67.6061 99.5667 67.6029 99.537 67.5986 99.5061 67.5944 99.4753 67.5901 99.4456 67.5848 99.4147 67.5795 99.385 67.5742 99.3541 67.5678 99.3244 67.5614 99.2946 67.555 99.2638 67.5476 99.234 67.5402 99.2043 67.5327 99.1745 67.5242 99.1447 67.5157 99.115 67.5061 99.0852 67.4976 99.0565 67.487 99.0268 67.4775 98.9981 67.4668 98.9683 67.4562 98.9396 67.4445 98.9109 67.4339 98.8811 67.4211 98.8524 67.4094 98.8248 67.3967 98.7961 67.3839 98.7674 67.3701 98.7398 67.3563 98.7111 67.3425 98.6834 67.3286 98.6558 67.3137 98.6282 67.2978 98.6005 67.2829 98.5729 67.267 98.5463 67.25 98.5187 67.234 98.4921 67.217 98.4655 67.199 98.4389 67.182 98.4124 67.1639 98.3869 67.1447 98.3603 67.1267 98.3348 67.1075 98.3093 67.0873 98.2837 67.0671 98.2582 67.047 98.2338 67.0268 98.2083 67.0055 98.1838 66.9842 98.1594 66.963 98.1349 66.9407 98.1115 66.9183 98.0882 66.895 98.0637 66.8716 63.9994 32.8072 29.935 66.8716 29.9116 66.895 29.8882 66.9183 29.8638 66.9407 29.8404 66.963 29.8159 66.9842 29.7915 67.0055 29.766 67.0268 29.7415 67.047 29.716 67.0671 29.6905 67.0873 29.665 67.1075 29.6395 67.1267 29.6129 67.1447 29.5874 67.1639 29.5608 67.182 29.5342 67.199 29.5077 67.217 29.4811 67.234 29.4535 67.25 29.4269 67.267 29.3993 67.2829 29.3716 67.2978 29.344 67.3137 29.3163 67.3286 29.2887 67.3425 29.26 67.3563 29.2324 67.3701 29.2037 67.3839 29.175 67.3967 29.1463 67.4094 29.1176 67.4211 29.0889 67.4339 29.0602 67.4445 29.0315 67.4562 29.0017 67.4668 28.973 67.4775 28.9432 67.487 28.9135 67.4976 28.8848 67.5061 28.855 67.5157 28.8253 67.5242 28.7955 67.5327 28.7657 67.5402 28.736 67.5476 28.7051 67.555 28.6754 67.5614 28.6456 67.5678 28.6148 67.5742 28.585 67.5795 28.5542 67.5848 28.5244 67.5901 28.4936 67.5944 28.4628 67.5986 28.433 67.6029 28.4022 67.6061 28.3714 67.6092 28.3406 67.6114 28.3097 67.6146 28.28 67.6156 28.2491 67.6178 28.2183 67.6188 28.1875 67.6199 28.1567 67.6209 28.1258 67.6209 28.095 67.6209 28.0653 67.6199 28.0344 67.6188 28.0036 67.6178 27.9728 67.6156 27.9419 67.6146 27.9111 67.6114 27.8814 67.6092 27.8505 67.6061 27.8197 67.6029 27.7889 67.5986 27.7591 67.5944 27.7283 67.5901 27.6975 67.5848 27.6677 67.5795 27.6369 67.5742 27.6071 67.5678 27.5773 67.5614 27.5465 67.555 27.5168 67.5476 27.487 67.5402 27.4572 67.5327 27.4275 67.5242 27.3977 67.5157 27.368 67.5061 27.3382 67.4976 27.3084 67.487 27.2797 67.4775 27.25 67.4668 27.2213 67.4562 27.1926 67.4445 27.1628 67.4339 27.1341 67.4211 27.1054 67.4094 27.0767 67.3967 27.0491 67.3839 27.0204 67.3701 26.9917 67.3563 26.964 67.3425 26.9364 67.3286 26.9088 67.3137 26.8811 67.2978 26.8535 67.2829 26.8259 67.267 26.7982 67.25 26.7716 67.234 26.7451 67.217 26.7185 67.199 26.6919 67.182 26.6653 67.1639 26.6388 67.1447 26.6133 67.1267 26.5877 67.1075 26.5622 67.0873 26.5367 67.0671 26.5112 67.047 26.4857 67.0268 26.4613 67.0055 26.4368 66.9842 26.4124 66.963 26.3879 66.9407 26.3645 66.9183 26.3401 66.895 26.3167 66.8716 26.2933 66.8482 26.271 66.8248 26.2487 66.8003 26.2263 66.7759 26.204 66.7525 26.1828 66.727 26.1626 66.7026 26.1413 66.6781 26.1211 66.6526 26.1009 66.6271 26.0818 66.6016 26.0627 66.5761 26.0435 66.5495 26.0254 66.524 26.0074 66.4974 25.9893 66.4708 25.9723 66.4443 25.9553 66.4166 25.9383 66.39 25.9223 66.3624 25.9064 66.3358 25.8904 66.3082 25.8756 66.2806 25.8607 66.2529 25.8458 66.2242 25.832 66.1966 25.8182 66.169 25.8054 66.1403 25.7916 66.1115 25.7799 66.0829 25.7672 66.0542 25.7555 66.0255 25.7438 65.9968 25.7331 65.9681 25.7214 65.9383 25.7119 65.9096 25.7012 65.8798 25.6917 65.8501 25.6821 65.8214 25.6736 65.7916 25.6651 65.7618 25.6566 65.7321 25.6492 65.7023 25.6407 65.6715 25.6343 65.6417 25.6268 65.612 25.6205 65.5812 25.6152 65.5514 25.6088 65.5216 25.6035 65.4908 25.5992 65.46 25.5939 65.4302 25.5907 65.3994 25.5864 65.3686 25.5833 65.3388 25.5801 65.308 25.5769 65.2771 25.5748 65.2463 25.5726 65.2166 25.5705 65.1857 25.5694 65.1549 25.5684 65.1241 25.5684 65.0933 25.5684 65.0624 25.5684 65.0316 25.5684 65.0008 25.5694 64.971 25.5705 64.9402 25.5726 64.9094 25.5748 64.8785 25.5769 64.8477 25.5801 64.8169 25.5833 64.7871 25.5864 64.7563 25.5907 64.7255 25.5939 64.6957 25.5992 64.6649 25.6035 64.6341 25.6088 64.6043 25.6152 64.5735 25.6205 64.5437 25.6268 64.5139 25.6343 64.4831 25.6407 64.4534 25.6492 64.4236 25.6566 64.3938 25.6651 64.3641 25.6736 64.3343 25.6821 64.3045 25.6917 64.2748 25.7012 64.245 25.7119 64.2163 25.7214 64.1865 25.7331 64.1579 25.7438 64.1281 25.7555 64.0994 25.7672 64.0707 25.7799 64.042 25.7916 64.0133 25.8054 63.9846 25.8182 63.957 25.832 63.9283 25.8458 63.9006 25.8607 63.873 25.8756 63.8443 25.8904 63.8166 25.9064 63.7901 25.9223 63.7624 25.9383 63.7348 25.9553 63.7082 25.9723 63.6816 25.9893 63.6551 26.0074 63.6285 26.0254 63.6019 26.0435 63.5754 26.0627 63.5498 26.0818 63.5243 26.1009 63.4978 26.1211 63.4733 26.1413 63.4478 26.1626 63.4223 26.1828 63.3979 26.204 63.3734 26.2263 63.3489 26.2487 63.3245 26.271 63.3011 26.2933 63.2767 26.3167 63.2533 62.1041 27.4659 62.1254 27.4436 62.1456 27.4212 62.1668 27.3989 62.1881 27.3776 62.2125 27.3543 62.2359 27.3319 62.2593 27.3086 62.2837 27.2873 62.3082 27.265 62.3326 27.2437 62.3581 27.2225 62.3826 27.2023 62.4081 27.1821 62.4336 27.1619 62.4591 27.1417 62.4846 27.1225 62.5112 27.1045 62.5367 27.0853 62.5633 27.0673 62.5899 27.0503 62.6164 27.0322 62.6441 27.0152 62.6707 26.9992 62.6983 26.9822 62.7249 26.9663 62.7525 26.9514 62.7801 26.9355 62.8078 26.9206 62.8365 26.9068 62.8641 26.8929 62.8928 26.8791 62.9205 26.8653 62.9492 26.8525 62.9779 26.8398 63.0066 26.827 63.0353 26.8153 63.065 26.8036 63.0937 26.793 63.1224 26.7824 63.1522 26.7718 63.1819 26.7622 63.2106 26.7516 63.2404 26.7431 63.2702 26.7335 63.2999 26.725 63.3297 26.7165 63.3594 26.709 63.3903 26.7016 63.4201 26.6942 63.4498 26.6878 63.4806 26.6814 63.5104 26.675 63.5412 26.6697 63.571 26.6644 63.6018 26.6591 63.6316 26.6548 63.6624 26.6506 63.6932 26.6474 63.724 26.6432 63.7538 26.64 63.7846 26.6378 63.8155 26.6357 63.8463 26.6336 63.8771 26.6315 63.9079 26.6304 63.9388 26.6293 63.9685 26.6293 63.9994 26.6293 64.0302 26.6293Z" fill="#2D67B9" fill-rule="evenodd"/><path d="M56.7218 93.2917 35.0567 93.2917 35.0567 66.0249 63.9998 37.0819 92.9429 66.0249 92.9429 93.2917 71.2778 93.2917 71.2778 71.6076 56.7218 71.6076 56.7218 93.2917Z" fill="#2D67B9" fill-rule="evenodd"/><path d="M82.4218 39.6149 82.4218 35.5406C82.4218 34.2927 83.2913 33.2797 84.3617 33.2797L88.2425 33.2797C89.3129 33.2797 90.1824 34.2927 90.1824 35.5406L90.1824 47.3765 82.4218 39.6149Z" fill="#2D67B9" fill-rule="evenodd"/></g></svg>